<?xml version="1.0" encoding="utf-8"?>
<svg xmlns="http://www.w3.org/2000/svg" width="108" height="108" viewBox="0 0 108 108" fill="none">
<g clip-path="url(#clip0_759_14765)">
<path d="M107.856 57.0337C107.463 56.2451 106.627 55.8529 105.528 55.9246C104.899 55.9769 104.283 56.1292 103.702 56.3758C103.357 56.5198 103.021 56.6846 102.696 56.8693C102.319 57.0695 101.954 57.2905 101.602 57.5314C100.928 58.0032 100.342 58.5883 99.8689 59.2605C99.32 60.0185 98.8513 60.8312 98.47 61.6854C98.6771 60.9896 98.8503 60.3148 99.0278 59.6696C99.1166 59.349 99.2096 59.037 99.2814 58.7249C99.3533 58.4128 99.4251 58.1092 99.4969 57.8139C99.7557 57.4859 100.065 57.2011 100.414 56.9705C100.769 56.7259 101.171 56.5024 101.572 56.2788C102.432 55.8509 103.25 55.3426 104.015 54.7606C106.031 53.0737 106.441 51.4205 105.705 50.3029C104.97 49.1853 103.432 49.9191 102.244 51.2096C101.801 51.6888 101.421 52.2215 101.111 52.7953C100.925 53.1243 100.756 53.487 100.57 53.8792C100.384 54.2714 100.207 54.6847 100.038 55.1444C100.169 54.4696 100.3 53.8792 100.384 53.3267L100.6 51.9519C100.723 51.6988 100.849 51.4289 100.989 51.1464C101.128 50.8638 101.255 50.5602 101.411 50.2523C101.69 49.6281 101.982 48.9618 102.257 48.2828C102.77 47.0406 103.102 45.731 103.241 44.3944C103.283 43.7725 103.262 43.148 103.178 42.5304C103.108 42.0532 102.973 41.5878 102.776 41.1471C102.421 40.4217 101.897 40 101.259 40C100.621 40 100.08 40.4217 99.6956 41.1176C99.4856 41.5288 99.3348 41.9675 99.2476 42.4207C99.12 42.9923 99.0408 43.5735 99.0109 44.1583C99.0066 45.4399 99.1327 46.7187 99.3871 47.9749C99.4927 48.6666 99.6111 49.3624 99.7252 50.0246C99.7801 50.3535 99.8477 50.6782 99.8858 50.9819C99.9238 51.2855 99.9618 51.5807 99.9999 51.8507C99.9365 52.226 99.8604 52.6941 99.7674 53.2128C99.6745 53.7316 99.5434 54.3431 99.4082 55.0136C99.4082 54.5371 99.4082 54.0901 99.4082 53.6683C99.3826 53.2731 99.3303 52.88 99.2518 52.4917C99.1427 51.8704 98.9478 51.2672 98.6728 50.6993C97.8276 49.1727 96.4837 48.228 95.5455 49.0124C94.6073 49.7968 94.5608 51.1675 95.892 53.2297C96.4223 53.998 97.0011 54.7319 97.6248 55.4269C97.9082 55.7649 98.1626 56.1261 98.3855 56.5066C98.5907 56.8606 98.7337 57.2472 98.8081 57.6495L98.5841 58.5562C98.508 58.8641 98.4108 59.1719 98.3221 59.4924C98.1361 60.125 97.9586 60.7956 97.7473 61.4788C97.8825 60.5669 97.901 59.6415 97.8023 58.7249C97.7075 57.9324 97.4484 57.1683 97.0415 56.4813C96.8363 56.1316 96.6076 55.7963 96.3569 55.4775C96.1241 55.1929 95.8713 54.9251 95.6004 54.6763C95.1503 54.253 94.6352 53.9041 94.0748 53.643C93.0774 53.2002 92.1561 53.2213 91.5391 53.643C91.3851 53.7494 91.2625 53.895 91.1841 54.0647C91.106 54.2405 91.0616 54.4293 91.053 54.6214C91.0487 55.1167 91.151 55.6071 91.3531 56.0595C91.4685 56.3484 91.6011 56.63 91.7504 56.903C91.9025 57.1856 92.0716 57.4766 92.2575 57.7676C92.6524 58.3798 93.0977 58.9581 93.5888 59.4967C93.817 59.7539 94.0452 60.0027 94.2523 60.2389C94.4594 60.4751 94.6749 60.7112 94.8355 60.939C95.1868 61.3716 95.4966 61.8361 95.761 62.3265C95.8853 62.5647 95.9926 62.8113 96.0822 63.0645C96.1287 63.1952 96.171 63.326 96.2048 63.4609C96.2386 63.5959 96.2639 63.7308 96.2851 63.8827C96.374 64.5178 96.374 65.1622 96.2851 65.7973C96.1456 66.1895 95.9808 66.5733 95.816 66.9613C95.6511 67.3493 95.4905 67.7499 95.3215 68.1506C95.4286 67.6867 95.5089 67.2396 95.5624 66.8095C95.6189 66.3903 95.6373 65.9668 95.6173 65.5443C95.5875 64.7789 95.4081 64.0268 95.0891 63.3302C94.528 62.0501 93.5983 60.9653 92.4181 60.2136C91.4714 59.6738 90.5544 59.5979 89.8824 59.9521C89.7177 60.0408 89.5782 60.1697 89.4769 60.3268C89.3757 60.4839 89.316 60.664 89.3034 60.8504C89.2779 61.0718 89.2779 61.2954 89.3034 61.5167C89.3303 61.7809 89.3812 62.042 89.4556 62.2969C89.6424 62.9133 89.8872 63.5106 90.1867 64.0809C90.5045 64.7241 90.8719 65.3416 91.2855 65.9281C91.6827 66.4721 92.0504 66.9782 92.3632 67.4674C92.6592 67.9247 92.9111 68.4091 93.1154 68.9139C93.3149 69.41 93.4388 69.9332 93.4831 70.4659C93.5122 71.0835 93.4481 71.7019 93.2929 72.3004C93.1027 72.6631 92.9252 73.0385 92.7139 73.3927C92.5026 73.747 92.2913 74.1139 92.0927 74.4766C92.2406 74.0548 92.3632 73.6331 92.4604 73.2409C92.549 72.8513 92.6042 72.4548 92.6252 72.0558C92.6832 71.3306 92.5971 70.6011 92.3716 69.9092C91.9547 68.5822 91.1532 67.4082 90.0683 66.5353C89.1893 65.8943 88.2849 65.7172 87.5665 65.9829C87.3942 66.0496 87.2418 66.1589 87.1235 66.3006C87.0053 66.4422 86.925 66.6115 86.8903 66.7926C86.838 67.0093 86.8153 67.232 86.8226 67.4547C86.82 67.7162 86.8413 67.9773 86.886 68.2349C86.9966 68.8643 87.1722 69.4805 87.4101 70.0737C87.6677 70.7446 87.9742 71.3958 88.3272 72.0221C88.9356 72.9976 89.4211 74.0444 89.7725 75.1387C90.0729 76.2259 90.0076 77.3815 89.5866 78.4282L88.8892 79.4193C88.6484 79.7482 88.3906 80.0645 88.1454 80.385C88.3307 80.0215 88.493 79.6469 88.6314 79.2632C88.7515 78.9005 88.8461 78.5299 88.9146 78.1541C89.0576 77.4712 89.0576 76.7662 88.9146 76.0834C88.6731 74.7139 88.0219 73.4495 87.0466 72.4565C86.6946 72.1192 86.2777 71.8566 85.821 71.6847C85.4432 71.5492 85.0353 71.52 84.6419 71.6003C84.4642 71.6412 84.3001 71.7271 84.1654 71.8497C84.0306 71.9724 83.9299 72.1276 83.8728 72.3004C83.7262 72.7562 83.6688 73.2358 83.7037 73.7132C83.7339 74.3429 83.8302 74.9677 83.9911 75.5773C84.0291 75.746 84.0756 75.9189 84.1263 76.0876C84.1771 76.2563 84.2193 76.4292 84.2743 76.5979C84.3799 76.9395 84.4982 77.2853 84.6335 77.6227C84.8701 78.2257 85.0899 78.7782 85.2674 79.3096C85.3519 79.5753 85.4322 79.8368 85.4998 80.0898C85.5675 80.3428 85.6055 80.5917 85.6393 80.8405C85.7434 81.6194 85.6727 82.4117 85.4322 83.16C85.3294 83.4493 85.2065 83.7311 85.0646 84.0035C84.5109 84.577 83.9742 85.1674 83.3741 85.6904C83.8103 85.0759 84.1508 84.3991 84.3841 83.683C84.4913 83.3611 84.5718 83.0311 84.625 82.6961C84.6722 82.3722 84.6835 82.0441 84.6588 81.7177C84.6132 80.3296 84.1394 78.9894 83.3022 77.8799C82.6049 77.0365 81.7935 76.64 81.0497 76.6949C80.8715 76.7069 80.6996 76.7654 80.5513 76.8646C80.4029 76.9637 80.2833 77.1001 80.2044 77.26C80.099 77.4472 80.0221 77.649 79.9762 77.8588C79.9464 77.9783 79.9239 78.0994 79.9086 78.2215C79.8832 78.3512 79.8649 78.4821 79.8537 78.6137C79.7779 79.9475 79.9018 81.285 80.2214 82.5822C80.365 83.198 80.4918 83.7673 80.589 84.3113C80.6355 84.5812 80.6736 84.8469 80.6989 85.1084C80.722 85.3565 80.7305 85.6058 80.7243 85.8549C80.7187 86.3524 80.6419 86.8467 80.4961 87.3225C80.4166 87.5765 80.3191 87.8245 80.2044 88.0647C80.0685 88.3235 79.9131 88.5717 79.7396 88.807C79.1056 89.2709 78.4971 89.7643 77.842 90.1734C78.3433 89.6558 78.7636 89.0658 79.0887 88.4232C79.236 88.1339 79.3603 87.8336 79.4606 87.5249C79.5558 87.2251 79.6154 86.9151 79.6381 86.6013C79.812 85.2275 79.5504 83.8339 78.8901 82.616C78.3323 81.6713 77.5927 81.1568 76.8573 81.0851C76.6825 81.0681 76.5064 81.0983 76.3473 81.1725C76.1882 81.2467 76.052 81.3621 75.9529 81.5068C75.8248 81.6742 75.721 81.8588 75.6444 82.0551C75.5978 82.1668 75.5569 82.2808 75.5218 82.3967C75.4796 82.5148 75.4458 82.6371 75.4077 82.7678C75.2628 83.3682 75.1764 83.9811 75.1499 84.5981C75.1499 84.7668 75.1499 84.9439 75.1288 85.1211C75.1077 85.2982 75.1288 85.4669 75.1288 85.644C75.1288 85.994 75.1288 86.3567 75.1584 86.7194C75.1964 87.3352 75.2302 87.9087 75.2302 88.4527C75.2302 88.7226 75.2302 88.9883 75.2091 89.2414C75.1897 89.4861 75.1573 89.7297 75.1119 89.971C75.0261 90.4494 74.8739 90.9136 74.6597 91.35C74.5438 91.5843 74.4111 91.8098 74.2624 92.0248C74.0922 92.249 73.9058 92.4604 73.7046 92.6574L72.6523 93.1382C72.4832 93.2225 72.3142 93.3153 72.1409 93.3912L71.6211 93.6147C71.769 93.5051 71.9085 93.3912 72.0437 93.2816C72.1789 93.1719 72.3015 93.0412 72.424 92.9189C72.6562 92.6804 72.8722 92.4268 73.0707 92.1598C73.4518 91.6767 73.7308 91.1215 73.8905 90.5277C74.0938 89.7918 74.1892 89.0304 74.1737 88.2672C74.1671 87.6577 74.0541 87.054 73.8398 86.4833C73.6797 86.0297 73.4328 85.6115 73.1129 85.2518C72.846 84.9603 72.5061 84.7449 72.1282 84.6276C71.9642 84.577 71.7894 84.5718 71.6227 84.6127C71.4559 84.6535 71.3034 84.7389 71.1816 84.8596C70.8657 85.1863 70.6147 85.5698 70.442 85.9898C70.1987 86.5528 70.0091 87.1374 69.8757 87.7358C69.8376 87.9045 69.7996 88.0732 69.7658 88.2461C69.732 88.419 69.6897 88.5835 69.6601 88.7522C69.5925 89.098 69.5376 89.4565 69.4953 89.8149C69.4235 90.418 69.3516 90.9789 69.2544 91.5019C69.2079 91.7633 69.1572 92.0206 69.0938 92.261C69.0304 92.5014 68.9586 92.7291 68.8741 92.9526C68.7077 93.4032 68.4801 93.8289 68.1979 94.2178C68.0492 94.4237 67.8853 94.6182 67.7076 94.7998C67.5121 94.991 67.2999 95.1646 67.0737 95.3185L65.9665 95.6306C65.603 95.7318 65.2522 95.8415 64.8972 95.909C65.2022 95.758 65.4923 95.5786 65.7636 95.3734C66.0233 95.189 66.2704 94.9875 66.5032 94.7703C66.9478 94.3765 67.3086 93.8974 67.5639 93.3617C67.8982 92.6773 68.133 91.9488 68.2613 91.1982C68.3107 90.8829 68.3361 90.5643 68.3373 90.2451C68.332 89.9623 68.3052 89.6804 68.257 89.4016C68.1784 88.9216 68.0061 88.4617 67.7499 88.0479C67.5431 87.7128 67.2516 87.4379 66.9047 87.2508C66.754 87.1705 66.5843 87.1328 66.4137 87.1418C66.2432 87.1507 66.0783 87.2059 65.9369 87.3014C65.5679 87.5644 65.2524 87.895 65.0071 88.2756C64.6625 88.7822 64.3668 89.3202 64.1238 89.8824C64.0562 90.0384 63.9844 90.1987 63.921 90.3632C63.8576 90.5277 63.7857 90.6837 63.7224 90.8482C63.5913 91.1729 63.4688 91.5103 63.3589 91.8561C63.1772 92.4254 63.0039 92.9568 62.818 93.446C62.6515 93.9148 62.4406 94.3667 62.1882 94.7956C61.9484 95.1971 61.6572 95.5657 61.3219 95.8921C61.142 96.0628 60.9514 96.222 60.7514 96.3686L60.4217 96.5879L60.2442 96.6892L60.0625 96.7819L58.2706 96.938C58.7732 96.7085 59.2201 96.3733 59.5807 95.9553C59.7443 95.7588 59.8926 95.5502 60.0244 95.3312C60.1456 95.1306 60.2529 94.9221 60.3456 94.707C60.5011 94.345 60.5981 93.9607 60.633 93.5683C60.6784 93.289 60.6526 93.0028 60.5581 92.736C60.4636 92.4692 60.3033 92.2304 60.0921 92.0417C59.6906 91.7718 59.2172 91.9405 58.6974 92.417C58.4076 92.6968 58.1431 93.0016 57.9071 93.328C57.7719 93.5051 57.6536 93.7033 57.5099 93.8973C57.3662 94.0913 57.2267 94.2853 57.0873 94.4877C56.0138 96.1999 55.4433 97.0434 55.1643 97.4398C55.1149 97.2133 54.9995 97.0063 54.8325 96.845C54.6656 96.6837 54.4546 96.5752 54.2261 96.5331C54.7586 95.8794 56.111 94.0618 56.111 92.4128C56.111 90.359 55.1728 89.3468 53.9979 89.3468C52.823 89.3468 51.8848 90.359 51.8848 92.4128C51.8848 94.0618 53.2372 95.8794 53.7739 96.5331C53.5449 96.5749 53.3333 96.6833 53.1656 96.8446C52.998 97.0059 52.8817 97.2129 52.8315 97.4398C52.5568 97.0561 51.9863 96.221 50.9128 94.4877C50.7822 94.2838 50.6411 94.0868 50.4902 93.8973C50.3507 93.7033 50.2282 93.5051 50.0929 93.328C49.8582 93.0006 49.5937 92.6957 49.3026 92.417C48.7828 91.9405 48.3095 91.7718 47.908 92.0417C47.6967 92.2304 47.5365 92.4692 47.4419 92.736C47.3474 93.0028 47.3217 93.289 47.367 93.5683C47.4036 93.9608 47.502 94.3451 47.6586 94.707C47.7499 94.9221 47.8558 95.1306 47.9756 95.3312C48.1103 95.5483 48.2585 95.7567 48.4194 95.9553C48.78 96.3733 49.2269 96.7085 49.7295 96.938L47.9418 96.7819L47.7558 96.6934L47.5826 96.5879C47.4685 96.5162 47.3586 96.4446 47.2529 96.3686C47.0519 96.2232 46.8612 96.064 46.6824 95.8921C46.3459 95.5668 46.0545 95.198 45.816 94.7956C45.5629 94.3671 45.352 93.9152 45.1863 93.446C44.9962 92.9568 44.8229 92.4254 44.6454 91.8561C44.5355 91.5103 44.4129 91.1729 44.2819 90.8482C44.2143 90.6837 44.1509 90.5234 44.0833 90.3632C44.0157 90.2029 43.9481 90.0384 43.8804 89.8824C43.6362 89.32 43.339 88.782 42.9929 88.2756C42.7477 87.895 42.4321 87.5644 42.0632 87.3014C41.9218 87.2059 41.7569 87.1507 41.5863 87.1418C41.4158 87.1328 41.246 87.1705 41.0954 87.2508C40.7491 87.4387 40.4577 87.7134 40.2502 88.0479C39.9939 88.4617 39.8216 88.9216 39.743 89.4016C39.6929 89.6801 39.666 89.9622 39.6627 90.2451C39.6639 90.5643 39.6894 90.8829 39.7388 91.1982C39.865 91.9493 40.0999 92.678 40.4361 93.3617C40.6915 93.8974 41.0522 94.3765 41.4969 94.7703C41.7379 94.9884 41.9935 95.1898 42.2618 95.3734C42.5342 95.5758 42.8242 95.7536 43.1282 95.9047C42.7732 95.8373 42.4224 95.7276 42.059 95.6264L40.9517 95.3143C40.7245 95.1618 40.5122 94.9881 40.3178 94.7956C40.14 94.6129 39.9748 94.4185 39.8233 94.2136C39.5439 93.8236 39.318 93.3981 39.1513 92.9484C39.0668 92.7249 38.995 92.4971 38.9274 92.2568C38.8597 92.0164 38.8133 91.7591 38.7668 91.4976C38.6738 90.9705 38.6019 90.4096 38.5301 89.8107C38.4878 89.4522 38.4329 89.0938 38.3653 88.748C38.3315 88.5793 38.2977 88.4063 38.2596 88.2419C38.2216 88.0774 38.1878 87.9003 38.1497 87.7316C38.0169 87.1325 37.8259 86.5477 37.5792 85.9856C37.4078 85.5659 37.1583 85.1824 36.8439 84.8554C36.7211 84.7347 36.5679 84.6494 36.4005 84.6086C36.233 84.5678 36.0577 84.5729 35.893 84.6234C35.5163 84.7408 35.1779 84.9562 34.9125 85.2476C34.5841 85.608 34.3299 86.0292 34.1645 86.4875C34.0615 86.7613 33.9824 87.0435 33.9278 87.3309C33.869 87.6441 33.8351 87.9614 33.8264 88.2798C33.8146 89.0431 33.9113 89.8042 34.1137 90.5403C34.2735 91.1341 34.5525 91.6894 34.9336 92.1724C35.1321 92.4394 35.3481 92.693 35.5802 92.9315C35.7007 93.0588 35.8277 93.1799 35.9606 93.2942C36.0958 93.4081 36.2395 93.5177 36.3832 93.6274L35.8634 93.4081C35.6901 93.328 35.5253 93.2394 35.352 93.155L34.3166 92.6363C34.1144 92.4403 33.9279 92.2288 33.7587 92.0037C33.6083 91.7898 33.4755 91.5642 33.3615 91.3289C33.1453 90.8929 32.9917 90.4286 32.9051 89.9499C32.8628 89.7095 32.829 89.4691 32.8079 89.2203C32.7867 88.9715 32.7867 88.7016 32.7867 88.4317C32.7867 87.8876 32.8205 87.3141 32.8586 86.6983C32.8839 86.3356 32.8924 85.973 32.8882 85.6229C32.8882 85.4458 32.8882 85.2729 32.8882 85.1C32.8882 84.9271 32.8882 84.7457 32.8882 84.577C32.8583 83.9601 32.7706 83.3473 32.6261 82.7467C32.5923 82.616 32.5543 82.4937 32.5163 82.3756C32.4782 82.2575 32.436 82.1394 32.3937 82.034C32.3171 81.8377 32.2132 81.6532 32.0852 81.4857C31.9848 81.3414 31.8477 81.2262 31.6881 81.1521C31.5284 81.078 31.3519 81.0476 31.1765 81.064C30.4412 81.1357 29.7058 81.6502 29.1438 82.5949C28.4871 83.814 28.2271 85.2069 28.4 86.5802C28.4231 86.8953 28.4827 87.2066 28.5775 87.5081C28.676 87.816 28.8004 88.1151 28.9494 88.4021C29.2787 89.0475 29.7064 89.6379 30.2172 90.1523C29.5622 89.7306 28.9494 89.2498 28.3197 88.7859C28.1471 88.5514 27.9917 88.3047 27.8548 88.0479C27.7407 87.8059 27.6433 87.5565 27.5632 87.3014C27.418 86.8253 27.3398 86.3314 27.3307 85.8338C27.3267 85.5847 27.3351 85.3356 27.3561 85.0873C27.3871 84.8258 27.4251 84.5602 27.4702 84.2902C27.5632 83.7462 27.6942 83.1769 27.8379 82.5611C28.1553 81.2635 28.2792 79.9263 28.2055 78.5927C28.2055 78.4535 28.1717 78.327 28.1506 78.2004C28.1295 78.0739 28.1083 77.9516 28.083 77.8378C28.0353 77.6285 27.9584 77.4269 27.8548 77.2389C27.7759 77.079 27.6563 76.9427 27.5079 76.8435C27.3596 76.7443 27.1877 76.6858 27.0095 76.6738C26.2615 76.6189 25.4501 77.0112 24.757 77.8588C23.9198 78.9683 23.446 80.3085 23.4004 81.6966C23.3736 82.0229 23.3849 82.3513 23.4342 82.675C23.4839 83.0103 23.5631 83.3405 23.6709 83.6619C23.9064 84.38 24.2498 85.0582 24.6894 85.6735C24.0977 85.1421 23.561 84.5559 22.9989 83.9866C22.8585 83.7135 22.7357 83.4318 22.6312 83.1431C22.5478 82.8812 22.4842 82.6133 22.441 82.3419C22.3672 81.8385 22.3672 81.327 22.441 80.8236C22.4749 80.5712 22.5214 80.3207 22.5805 80.0729C22.6439 79.8157 22.7242 79.5542 22.8129 79.2885C22.9904 78.7529 23.206 78.2004 23.4426 77.6016C23.5779 77.2642 23.7004 76.9184 23.8061 76.5768C23.8568 76.4081 23.9033 76.2394 23.954 76.0665C24.0047 75.8936 24.047 75.7249 24.0892 75.5562C24.246 74.9457 24.3422 74.3214 24.3766 73.6921C24.4116 73.2147 24.3542 72.7351 24.2076 72.2793C24.1505 72.1065 24.0497 71.9513 23.915 71.8287C23.7802 71.706 23.6161 71.6201 23.4384 71.5793C23.0451 71.4987 22.6371 71.5279 22.2593 71.6636C21.7768 71.8389 21.3374 72.115 20.9703 72.4733C19.9937 73.466 19.341 74.7304 19.0981 76.1002C18.9587 76.7849 18.9587 77.4905 19.0981 78.1751C19.1701 78.5492 19.2661 78.9183 19.3855 79.2801C19.5218 79.6592 19.6813 80.0296 19.8631 80.3892C19.618 80.0645 19.3602 79.7524 19.1193 79.4235L18.4219 78.4282C18.0009 77.383 17.9356 76.2287 18.236 75.1429C18.5867 74.0477 19.0707 72.9996 19.6771 72.0221C20.026 71.3927 20.3283 70.7387 20.5815 70.0652C20.8241 69.4716 21.0082 68.8558 21.1309 68.2265C21.1723 67.9685 21.1921 67.7075 21.1901 67.4463C21.2023 67.2239 21.1823 67.0009 21.1309 66.7842C21.095 66.6029 21.0139 66.4337 20.8949 66.2921C20.776 66.1506 20.6231 66.0413 20.4505 65.9744C19.7363 65.7088 18.8277 65.8859 17.9528 66.5269C16.8655 67.3975 16.0635 68.5723 15.6496 69.9008C15.4221 70.5922 15.3359 71.3221 15.396 72.0474C15.4167 72.4478 15.4719 72.8457 15.5608 73.2367C15.658 73.6584 15.7806 74.0506 15.9285 74.4723L15.303 73.3885C15.0959 73.03 14.9184 72.6589 14.724 72.2962C14.5701 71.6975 14.5074 71.079 14.5381 70.4617C14.5824 69.928 14.7049 69.4037 14.9015 68.9055C15.1028 68.405 15.3489 67.9237 15.6369 67.4674C15.9496 66.9824 16.3173 66.4721 16.7103 65.9281C17.134 65.3425 17.5113 64.7249 17.8387 64.0809C18.137 63.5105 18.3804 62.9132 18.5656 62.2969C18.6432 62.0395 18.6969 61.7755 18.7262 61.5083C18.7518 61.2869 18.7518 61.0634 18.7262 60.842C18.7129 60.6558 18.6529 60.476 18.5517 60.319C18.4506 60.1621 18.3115 60.033 18.1472 59.9437C17.4668 59.5894 16.5497 59.6653 15.6115 60.2052C14.4301 60.9566 13.499 62.0413 12.9364 63.3218C12.6282 64.0166 12.4561 64.7638 12.4292 65.5232C12.4071 65.9457 12.4255 66.3694 12.4842 66.7884C12.5377 67.2242 12.618 67.6712 12.7251 68.1295L12.2137 66.9402C12.0531 66.548 11.884 66.1642 11.7488 65.772C11.6576 65.137 11.6576 64.4923 11.7488 63.8574C11.7699 63.714 11.7953 63.579 11.8291 63.4356C11.8629 63.2922 11.9052 63.1699 11.9474 63.0434C12.0326 62.7918 12.1357 62.5465 12.2559 62.3096C12.5188 61.8184 12.8288 61.3537 13.1815 60.9221C13.3632 60.6944 13.5576 60.4624 13.7605 60.222L14.4282 59.4798C14.9166 58.9401 15.3604 58.3619 15.7552 57.7507C15.9454 57.4597 16.1144 57.1687 16.2624 56.8861C16.4183 56.6128 16.5594 56.3312 16.685 56.0427C16.8871 55.5903 16.9894 55.0998 16.985 54.6046C16.9731 54.4125 16.9273 54.2241 16.8498 54.0479C16.7743 53.8776 16.6529 53.7315 16.499 53.6261C15.8651 53.2044 14.9438 53.1749 13.9633 53.6261C13.4023 53.8863 12.8871 54.2352 12.4377 54.6594C12.1643 54.907 11.91 55.1749 11.677 55.4607C11.425 55.7775 11.1935 56.1099 10.9839 56.456C10.5775 57.1451 10.3172 57.9102 10.2189 58.7038C10.1239 59.6192 10.1438 60.5429 10.2781 61.4535C10.0626 60.7703 9.88506 60.1039 9.69911 59.4671C9.61459 59.1508 9.51739 58.8387 9.44131 58.5309C9.36524 58.223 9.2934 57.9236 9.22155 57.6326C9.2977 57.2308 9.44053 56.8445 9.64417 56.4897C9.86852 56.1092 10.1244 55.748 10.4091 55.4101C11.0279 54.7201 11.6023 53.9919 12.1292 53.2297C13.4604 51.1506 13.397 49.7926 12.4757 49.0124C11.5544 48.2322 10.1682 49.1727 9.34834 50.6993C9.07368 51.2677 8.87749 51.8707 8.76513 52.4917C8.68602 52.8797 8.63517 53.273 8.61298 53.6683C8.58954 54.1165 8.58954 54.5655 8.61298 55.0136C8.47775 54.3431 8.33828 53.7484 8.24953 53.2128L8.02132 51.8507C8.05513 51.5807 8.09316 51.2898 8.13543 50.9819C8.17769 50.674 8.24108 50.3535 8.29602 50.0246C8.41013 49.3624 8.52846 48.6666 8.63411 47.9749C8.88591 46.7255 9.01051 45.4538 9.00602 44.1794C8.97531 43.5949 8.89758 43.0139 8.77358 42.4418C8.68314 41.9889 8.53099 41.5504 8.32138 41.1387C7.91989 40.4217 7.38317 40 6.76192 40C6.14067 40 5.57859 40.4217 5.22359 41.164C5.02518 41.5983 4.88862 42.0583 4.81787 42.5304C4.7366 43.1426 4.71678 43.7614 4.75871 44.3776C4.79674 45.5036 5.24472 46.908 5.73918 48.2659C6.00966 48.9449 6.30549 49.6113 6.58442 50.2354C6.72811 50.5433 6.85489 50.8469 7.00704 51.1295C7.15918 51.4121 7.27328 51.682 7.39162 51.935C7.45078 52.3103 7.52686 52.7785 7.61138 53.3098C7.6959 53.8412 7.82691 54.4527 7.9537 55.1275C7.78888 54.6805 7.61138 54.284 7.42543 53.8623C7.23948 53.4406 7.07043 53.1116 6.88448 52.7827C6.57352 52.2098 6.19312 51.6772 5.75186 51.197C4.54317 49.9318 2.95836 49.1895 2.27372 50.3156C1.58907 51.4416 1.96943 53.0737 3.98109 54.7606C4.75149 55.3376 5.57507 55.8403 6.44073 56.262C6.86335 56.4855 7.2437 56.6837 7.60293 56.9536C7.9499 57.1865 8.25916 57.4709 8.52001 57.7971L8.73132 58.708C8.80316 59.0159 8.90036 59.3322 8.98489 59.6527C9.16661 60.2979 9.33566 60.9727 9.54697 61.6644C9.16259 60.8091 8.68949 59.9963 8.13543 59.2394C7.66493 58.5653 7.07825 57.9798 6.40269 57.5103C6.0514 57.2767 5.68739 57.0626 5.31234 56.8693C4.98456 56.6857 4.64583 56.5223 4.29806 56.3801C3.71749 56.1335 3.10113 55.9811 2.47235 55.9288C1.37354 55.8571 0.53253 56.2493 0.143721 57.038C0.0477449 57.235 -0.00142467 57.4515 3.14213e-05 57.6706C0.0024122 57.9137 0.0511779 58.1541 0.143721 58.3791C0.383081 58.9325 0.722622 59.4372 1.14533 59.8678C1.38796 60.1225 1.64625 60.362 1.91872 60.5847C2.21399 60.8194 2.52305 61.0363 2.84425 61.2342C3.50964 61.6472 4.21819 61.9866 4.95734 62.2463L5.92936 62.5795L6.83376 62.8874C7.37954 63.0742 7.91068 63.3011 8.42281 63.5664C8.66454 63.6934 8.89877 63.8342 9.12435 63.9881C9.23423 64.0682 9.34411 64.1568 9.45399 64.2453C9.56387 64.3339 9.67798 64.4267 9.78363 64.5279C10.2641 64.9741 10.6833 65.4818 11.0304 66.0377C11.1656 66.4341 11.3304 66.8263 11.491 67.2228L11.977 68.4289C11.7277 68.0072 11.4657 67.6403 11.1952 67.286C10.9247 66.9318 10.6415 66.607 10.3711 66.2992C9.8454 65.7102 9.22033 65.2178 8.52423 64.8442C6.96055 64.0007 5.56591 63.6043 4.44597 63.6507C3.32603 63.6971 2.53574 64.1821 2.23568 65.0087C2.16655 65.2309 2.14364 65.4648 2.16835 65.6961C2.19306 65.9275 2.26487 66.1514 2.37937 66.354C2.50322 66.6088 2.66102 66.8457 2.84848 67.0583C3.06096 67.3026 3.29121 67.531 3.53734 67.7415C4.09768 68.2125 4.71364 68.6133 5.3715 68.935C6.0762 69.2755 6.8159 69.5385 7.57757 69.7194L9.4709 70.1412C10.0284 70.2618 10.5764 70.4224 11.1107 70.6219C11.6227 70.818 12.1059 71.0819 12.5476 71.4063C13.0624 71.7697 13.5308 72.1946 13.9422 72.6715C14.1324 73.0427 14.3099 73.4222 14.517 73.7891L15.1382 74.8941C14.8466 74.544 14.5508 74.2193 14.2465 73.9199C13.9422 73.6204 13.659 73.3294 13.3548 73.0764C12.7709 72.5949 12.1149 72.2078 11.4107 71.9293C9.76673 71.2545 8.3087 71.0268 7.20989 71.1913C6.11109 71.3557 5.38418 71.9166 5.18555 72.777C5.14565 73.0084 5.15238 73.2455 5.20536 73.4743C5.25833 73.7031 5.35648 73.9191 5.49406 74.1096C5.65039 74.3462 5.83175 74.5654 6.03501 74.7633C6.27507 74.9873 6.5338 75.1905 6.80841 75.3706C7.42255 75.7777 8.08383 76.1091 8.7778 76.3575C9.51812 76.6217 10.2869 76.7987 11.0684 76.8846C12.2639 76.9749 13.4534 77.1326 14.6311 77.357C15.7533 77.6364 16.7895 78.1867 17.6486 78.9596L18.3501 79.9802C18.591 80.3175 18.8488 80.6423 19.0981 80.9712C18.7769 80.6844 18.4431 80.423 18.1219 80.1741C17.8155 79.9296 17.4951 79.7029 17.1625 79.4952C16.5418 79.1125 15.8704 78.8186 15.1678 78.6222C13.452 78.1583 11.9559 78.1119 10.8993 78.4029C10.4247 78.52 9.98821 78.7567 9.63149 79.0903C9.31935 79.394 9.1273 79.7997 9.09054 80.2332C9.08138 80.4704 9.11964 80.707 9.20308 80.9293C9.28652 81.1516 9.41348 81.3551 9.57655 81.5279C9.98617 81.9953 10.4884 82.373 11.0515 82.6371C11.7239 82.9662 12.4333 83.214 13.1646 83.3751C13.3562 83.4173 13.5463 83.4552 13.7351 83.489C13.9295 83.5227 14.1324 83.5438 14.3268 83.5649C14.7216 83.5999 15.118 83.614 15.5143 83.607L17.4034 83.5564C17.695 83.5564 17.9697 83.5564 18.2487 83.5564C18.5276 83.5564 18.7981 83.5564 19.0601 83.5944C19.5898 83.6395 20.112 83.7486 20.6153 83.9191C20.8808 84.0119 21.1404 84.1203 21.3929 84.2439C21.6824 84.3684 21.9646 84.5092 22.2382 84.6656C22.796 85.2602 23.337 85.8633 23.9287 86.4116C23.2701 85.9982 22.5838 85.6304 21.8747 85.3108C21.2264 85.0419 20.546 84.8576 19.8504 84.7626C18.0754 84.5433 16.5793 84.7035 15.5777 85.1253C14.5761 85.547 13.9929 86.2977 14.0352 87.2002C14.0932 87.6842 14.339 88.1263 14.7198 88.4317C14.9407 88.6252 15.1815 88.7949 15.4383 88.9377C15.5735 89.0136 15.7172 89.0896 15.8609 89.157C16.0046 89.2245 16.1778 89.2836 16.3469 89.3384C17.8238 89.821 19.3967 89.9354 20.9281 89.6715L22.7622 89.3384C23.0454 89.292 23.3159 89.2498 23.5821 89.2161C23.8484 89.1823 24.1188 89.1444 24.3809 89.1233C24.9012 89.0818 25.4246 89.1017 25.9403 89.1823C26.2116 89.2256 26.4798 89.2862 26.7433 89.3637C27.0222 89.4396 27.3096 89.5282 27.5885 89.642C28.2309 90.127 28.8564 90.6373 29.5199 91.0675C28.8331 90.7854 28.1269 90.5529 27.4068 90.3716C27.0703 90.2925 26.7285 90.2376 26.3841 90.2071C26.0539 90.1772 25.7223 90.1659 25.3909 90.1734C23.6032 90.2367 22.141 90.6204 21.2154 91.1898C20.7912 91.436 20.4409 91.7914 20.2012 92.2188C19.9909 92.6053 19.9279 93.0547 20.0237 93.484C20.1611 93.9606 20.4816 94.3638 20.9154 94.6058C21.3085 94.8501 21.7358 95.0348 22.1832 95.1541C22.3481 95.1962 22.5213 95.23 22.6988 95.2595C23.4501 95.3832 24.2139 95.4129 24.9725 95.3481C25.1669 95.3481 25.3613 95.3143 25.56 95.289C25.7586 95.2637 25.9572 95.2173 26.1516 95.1751C26.5428 95.0918 26.9282 94.9833 27.3054 94.8504C27.9393 94.6311 28.5056 94.4287 29.0381 94.2305C29.3044 94.1335 29.5579 94.0491 29.8157 93.969C30.0735 93.8889 30.3229 93.8045 30.5764 93.7413C31.0717 93.608 31.5809 93.533 32.0936 93.5177C32.3616 93.5095 32.6297 93.518 32.8966 93.543C33.1898 93.563 33.4818 93.5982 33.7714 93.6485L34.8322 94.1925C35.0097 94.2811 35.183 94.3739 35.3605 94.4582L35.893 94.6901L35.3393 94.6016C35.1534 94.5763 34.9801 94.5383 34.8026 94.513C34.4596 94.4616 34.1139 94.4306 33.7672 94.4202C33.1136 94.401 32.46 94.4562 31.8189 94.5847C31.0211 94.7476 30.2422 94.9921 29.4945 95.3143C29.1817 95.452 28.8782 95.6097 28.5859 95.7867C28.3333 95.9386 28.0943 96.1122 27.8717 96.3054C27.492 96.625 27.207 97.0421 27.0476 97.5115C26.9127 97.9264 26.9338 98.3761 27.1067 98.7767C27.3313 99.2239 27.7205 99.5669 28.1929 99.7341C28.7925 99.9804 29.4382 100.095 30.0862 100.071C30.8511 100.062 31.6118 99.9583 32.3514 99.7636C32.5416 99.713 32.7318 99.6581 32.922 99.5949C33.1121 99.5316 33.3023 99.4557 33.4883 99.3756C33.8589 99.2226 34.2201 99.048 34.5702 98.8526C35.1407 98.5279 35.6521 98.2158 36.1339 97.9375C36.3748 97.7983 36.6072 97.6718 36.8396 97.5453C37.0721 97.4188 37.3045 97.2922 37.5369 97.1826C37.9914 96.9616 38.4691 96.7919 38.9612 96.6765C39.2161 96.6183 39.4744 96.5761 39.7346 96.55C40.0008 96.55 40.2882 96.4867 40.5798 96.4825L41.7166 96.8157C42.0885 96.9253 42.452 97.0434 42.8197 97.1151C42.452 97.1151 42.1054 97.1151 41.7631 97.1446C41.4303 97.1601 41.0986 97.1953 40.77 97.2501C40.1495 97.3591 39.5429 97.5359 38.9612 97.7772C38.2065 98.0848 37.4857 98.4692 36.81 98.9243C36.525 99.1159 36.2539 99.3273 35.9986 99.5569C35.7775 99.7513 35.5752 99.9659 35.3943 100.198C35.0803 100.577 34.8745 101.033 34.7984 101.518C34.7383 101.962 34.8452 102.413 35.0984 102.783C35.4077 103.186 35.8628 103.453 36.3663 103.525C36.9999 103.662 37.6556 103.662 38.2892 103.525C39.0405 103.374 39.7701 103.13 40.4615 102.8C40.639 102.716 40.8165 102.627 40.9897 102.53C41.163 102.433 41.3363 102.323 41.5053 102.214C41.8398 101.994 42.1602 101.753 42.4647 101.493C42.9591 101.071 43.3987 100.679 43.8128 100.32C44.227 99.9618 44.62 99.6497 45.03 99.3419C45.4252 99.0435 45.8501 98.7863 46.2978 98.5743C46.5308 98.4703 46.7692 98.3788 47.012 98.3002C47.1388 98.2622 47.2656 98.2243 47.4009 98.1947L47.6037 98.1483L47.815 98.0935L49.6872 98.2749C49.1276 98.4144 48.5997 98.6591 48.132 98.996C47.8995 99.1647 47.7094 99.3418 47.4938 99.5148C47.3128 99.6724 47.1407 99.84 46.9782 100.017C46.7058 100.311 46.4818 100.647 46.3147 101.012C46.1705 101.269 46.1102 101.565 46.142 101.858C46.1738 102.152 46.2962 102.428 46.4922 102.648C46.8726 103.07 47.6798 102.994 48.5039 102.648C48.941 102.458 49.3527 102.215 49.7295 101.923C49.9288 101.777 50.1154 101.615 50.2873 101.438C50.4437 101.257 50.5958 101.067 50.7353 100.873C51.9524 99.1858 52.5737 98.3634 52.8484 98.005C52.9064 98.2181 53.0237 98.4104 53.1868 98.5597C53.3498 98.709 53.5519 98.8091 53.7697 98.8484C53.1358 99.6118 51.3227 101.99 51.3227 104.141C51.3227 106.743 52.5145 108.03 53.9852 108.03C55.4559 108.03 56.6477 106.743 56.6477 104.141C56.6477 101.99 54.8347 99.6118 54.2008 98.8484C54.4193 98.8098 54.6223 98.71 54.7862 98.5607C54.9501 98.4114 55.068 98.2186 55.1263 98.005C55.4095 98.355 56.0223 99.1521 57.2394 100.877C57.3789 101.071 57.531 101.261 57.6874 101.442C57.8578 101.619 58.043 101.781 58.241 101.927C58.6198 102.218 59.0328 102.462 59.4708 102.652C60.3161 103.002 61.1021 103.074 61.4783 102.652C61.6743 102.432 61.7967 102.156 61.8285 101.863C61.8603 101.569 61.7999 101.274 61.6558 101.016C61.4905 100.65 61.2663 100.314 60.9922 100.021C60.8323 99.8432 60.6616 99.6756 60.4809 99.519C60.2865 99.3461 60.0583 99.1689 59.8385 99.0002C59.3854 98.6538 58.8705 98.3963 58.3213 98.2411L60.1935 98.0598L60.4048 98.1146L60.6034 98.161C60.7387 98.1905 60.8655 98.2285 60.9922 98.2664C61.2367 98.3443 61.4765 98.4358 61.7107 98.5406C62.1579 98.7535 62.5827 99.0107 62.9785 99.3081C63.4012 99.616 63.7773 99.9281 64.1915 100.287C64.6056 100.645 65.0367 101.041 65.5396 101.459C65.8456 101.719 66.1674 101.96 66.5032 102.18C66.6694 102.294 66.8415 102.4 67.0188 102.496C67.192 102.593 67.3653 102.682 67.547 102.766C68.2373 103.096 68.9654 103.339 69.7151 103.492C70.3501 103.629 71.0072 103.629 71.6422 103.492C72.1465 103.421 72.6023 103.154 72.9101 102.749C73.1672 102.381 73.2744 101.929 73.2101 101.484C73.1375 100.999 72.9329 100.542 72.6185 100.164C72.436 99.9322 72.2323 99.7175 72.0099 99.5232C71.7553 99.2946 71.4856 99.0832 71.2027 98.8906C70.5271 98.4355 69.8062 98.0511 69.0516 97.7435C68.4663 97.5076 67.8569 97.3365 67.2343 97.2332C66.9057 97.1782 66.574 97.143 66.2412 97.1278C65.8988 97.1278 65.5523 97.1278 65.1846 97.0982C65.5523 97.0265 65.9157 96.9085 66.2876 96.7988L67.4245 96.4656C67.7245 96.4656 68.0119 96.512 68.2697 96.5331C68.5302 96.5568 68.7887 96.5991 69.0431 96.6596C69.5352 96.775 70.0129 96.9448 70.4673 97.1657C70.6998 97.2754 70.9322 97.3977 71.1646 97.5284C71.3971 97.6591 71.6295 97.7814 71.8704 97.9206C72.3522 98.199 72.8636 98.511 73.4383 98.8358C73.7869 99.0311 74.1468 99.2057 74.516 99.3587C74.702 99.4388 74.8921 99.5105 75.0865 99.578C75.281 99.6455 75.4627 99.6961 75.6529 99.7467C76.3939 99.9414 77.1561 100.045 77.9223 100.055C78.5703 100.078 79.2159 99.9632 79.8156 99.7172C80.2871 99.5486 80.6758 99.2059 80.9018 98.7599C81.0747 98.3593 81.0958 97.9096 80.9609 97.4947C80.7973 97.0321 80.5128 96.6215 80.1368 96.3054C79.9134 96.1132 79.6746 95.9397 79.4226 95.7867C79.1283 95.6106 78.8235 95.4529 78.5098 95.3143C77.7626 94.9909 76.9835 94.7464 76.1854 94.5847C75.5443 94.456 74.8907 94.4008 74.2371 94.4202C73.8904 94.4308 73.5447 94.4618 73.2017 94.513C73.0242 94.5383 72.8509 94.5763 72.6649 94.6016L72.1113 94.6901L72.6438 94.4582C72.8213 94.3739 72.9946 94.2811 73.1721 94.1925L74.2329 93.6485C74.5224 93.5982 74.8144 93.563 75.1077 93.543C75.3745 93.518 75.6427 93.5095 75.9107 93.5177C76.4248 93.533 76.9354 93.608 77.4321 93.7413C77.6828 93.8059 77.9364 93.8818 78.1928 93.969C78.4464 94.0491 78.7042 94.1335 78.9704 94.2305C79.5029 94.416 80.0692 94.6522 80.6989 94.8504C81.0763 94.9828 81.4616 95.0912 81.8527 95.1751C82.0513 95.2173 82.2499 95.2595 82.4485 95.289C82.6472 95.3185 82.8416 95.3354 83.036 95.3481C83.7946 95.4127 84.5584 95.3829 85.3097 95.2595C85.4872 95.23 85.6562 95.1962 85.8253 95.1541C85.9834 95.1136 86.1387 95.0629 86.2901 95.0022C86.572 94.9009 86.8414 94.7679 87.0931 94.6058C87.525 94.3626 87.8438 93.9597 87.9806 93.484C88.0801 93.0553 88.0184 92.6051 87.8073 92.2188C87.5671 91.7904 87.2152 91.4348 86.7888 91.1898C85.8675 90.6204 84.401 90.2367 82.6134 90.1734C82.2833 90.1659 81.9532 90.1772 81.6244 90.2071C81.2786 90.2372 80.9354 90.2922 80.5975 90.3716C79.8779 90.5548 79.1719 90.7873 78.4844 91.0675C79.1564 90.6457 79.7734 90.127 80.4158 89.642C80.6925 89.5359 80.9746 89.4444 81.261 89.3679C81.524 89.2875 81.7923 89.2255 82.064 89.1823C82.5797 89.1017 83.1031 89.0818 83.6234 89.1233C83.8854 89.1233 84.1517 89.1739 84.4222 89.2161C84.6926 89.2582 84.9631 89.292 85.2421 89.3384L87.0804 89.6715C88.6129 89.9373 90.1872 89.8243 91.6658 89.3426C91.8349 89.2878 91.9955 89.2245 92.1519 89.1612C92.3082 89.098 92.4477 89.0179 92.5745 88.9419C92.8306 88.7981 93.0713 88.6285 93.2929 88.4359C93.6743 88.1316 93.919 87.6886 93.9733 87.2044C94.0198 86.3019 93.4408 85.5554 92.4308 85.1295C91.4207 84.7035 89.9331 84.5475 88.1623 84.7668C87.8231 84.8127 87.4871 84.8803 87.1565 84.9692C86.8083 85.0617 86.4666 85.1772 86.1338 85.3151C85.4307 85.6395 84.7514 86.0129 84.101 86.4326C84.7011 85.8844 85.2421 85.2771 85.7915 84.6867C86.0651 84.5304 86.3473 84.3896 86.6367 84.2649C86.8895 84.1421 87.1492 84.0337 87.4143 83.9402C87.9178 83.7701 88.4399 83.661 88.9695 83.6155C89.2358 83.5902 89.5063 83.5817 89.781 83.5775C90.0557 83.5733 90.3346 83.5775 90.6262 83.5775L92.5195 83.6281C92.9144 83.635 93.3094 83.6209 93.7029 83.586C93.9015 83.586 94.1001 83.5438 94.2945 83.51C94.4889 83.4763 94.6791 83.4384 94.8693 83.3962C95.6002 83.2337 96.3095 82.986 96.9824 82.6581C97.5443 82.3941 98.0451 82.0164 98.4531 81.549C98.6103 81.3698 98.7301 81.1612 98.8056 80.9352C98.881 80.7093 98.9106 80.4707 98.8926 80.2332C98.8543 79.7993 98.6608 79.3936 98.3474 79.0903C97.992 78.755 97.5549 78.518 97.0796 78.4029C96.0273 78.1119 94.5439 78.1583 92.8111 78.6222C92.1083 78.8199 91.4369 79.1152 90.8164 79.4994C90.4826 79.7053 90.1621 79.9321 89.857 80.1784C89.5359 80.423 89.202 80.6844 88.8808 80.9754C89.1301 80.6423 89.3879 80.3175 89.6288 79.9802L90.3304 78.9638C91.1897 78.1881 92.2276 77.6361 93.3521 77.357C94.5297 77.132 95.7192 76.9743 96.9148 76.8846C97.6961 76.7978 98.4648 76.6209 99.2054 76.3575C99.8993 76.1091 100.561 75.7777 101.175 75.3706C101.449 75.1894 101.707 74.9863 101.948 74.7633C102.151 74.5654 102.333 74.3462 102.489 74.1096C102.627 73.9194 102.725 73.7032 102.777 73.4743C102.83 73.2453 102.835 73.0081 102.793 72.777C102.595 71.9335 101.868 71.3557 100.769 71.1913C99.6702 71.0268 98.2122 71.2545 96.5724 71.9293C95.8793 72.2196 95.2362 72.6166 94.6664 73.1059C94.3579 73.3547 94.0748 73.6457 93.7705 73.9494C93.4662 74.253 93.1704 74.5778 92.8788 74.9278C93.0901 74.5567 93.3014 74.1856 93.5 73.8187C93.6986 73.4517 93.8846 73.0722 94.079 72.7053C94.4869 72.2203 94.954 71.7882 95.4694 71.419C95.9125 71.0944 96.3972 70.8306 96.9105 70.6346C97.4444 70.434 97.9925 70.2733 98.5503 70.1538L100.444 69.7321C101.205 69.5505 101.945 69.2875 102.65 68.9477C103.306 68.6249 103.92 68.2242 104.48 67.7542C104.728 67.5458 104.958 67.3173 105.168 67.0709C105.357 66.8584 105.516 66.6215 105.642 66.3667C105.755 66.1637 105.827 65.9398 105.851 65.7086C105.876 65.4775 105.854 65.2437 105.786 65.0213C105.485 64.1779 104.695 63.7182 103.588 63.676C102.481 63.6338 101.073 64.0176 99.5096 64.8695C98.8156 65.2443 98.1921 65.7366 97.667 66.3245C97.3923 66.6323 97.1092 66.9613 96.8218 67.3156C96.5344 67.6698 96.2935 68.0494 96.0399 68.4542C96.2048 68.0325 96.3696 67.6487 96.5302 67.2481C96.6908 66.8474 96.8556 66.4594 96.9908 66.063C97.3378 65.5082 97.7554 65.0007 98.2333 64.5532C98.3432 64.4562 98.4531 64.3592 98.5672 64.2707C98.6813 64.1821 98.7827 64.0977 98.8968 64.0134C99.1212 63.8577 99.3556 63.7168 99.5984 63.5917C100.11 63.3257 100.641 63.0987 101.187 62.9127L102.092 62.6048L103.064 62.2716C103.796 62.0116 104.498 61.6722 105.156 61.2595C105.478 61.0616 105.789 60.8447 106.086 60.61C106.357 60.3873 106.614 60.1478 106.855 59.8931C107.28 59.4647 107.62 58.9595 107.856 58.4044C107.952 58.1803 108.002 57.9395 108.004 57.6959C108.009 57.4665 107.958 57.2393 107.856 57.0337Z" fill="url(#paint0_linear_759_14765)"/>
<path d="M35.963 76.09C35.4296 76.09 34.9163 76.02 34.423 75.88C33.9296 75.7333 33.5196 75.5333 33.193 75.28L33.693 74.17C34.373 74.6433 35.1363 74.88 35.983 74.88C36.423 74.88 36.7596 74.81 36.993 74.67C37.233 74.5233 37.353 74.3233 37.353 74.07C37.353 73.8433 37.243 73.6667 37.023 73.54C36.8096 73.4133 36.4263 73.29 35.873 73.17C35.253 73.0433 34.7563 72.89 34.383 72.71C34.0163 72.53 33.7463 72.31 33.573 72.05C33.4063 71.7833 33.323 71.4567 33.323 71.07C33.323 70.6433 33.4396 70.2633 33.673 69.93C33.913 69.5967 34.2463 69.3367 34.673 69.15C35.0996 68.9567 35.593 68.86 36.153 68.86C36.653 68.86 37.133 68.9333 37.593 69.08C38.0596 69.2267 38.4296 69.4233 38.703 69.67L38.203 70.78C37.5563 70.3067 36.8763 70.07 36.163 70.07C35.7563 70.07 35.4363 70.15 35.203 70.31C34.9696 70.4633 34.853 70.6767 34.853 70.95C34.853 71.11 34.8963 71.2433 34.983 71.35C35.0763 71.45 35.2263 71.54 35.433 71.62C35.6463 71.7 35.9463 71.7833 36.333 71.87C37.2396 72.07 37.8896 72.3267 38.283 72.64C38.683 72.9533 38.883 73.3867 38.883 73.94C38.883 74.6067 38.6263 75.1333 38.113 75.52C37.5996 75.9 36.883 76.09 35.963 76.09ZM42.0902 76V70.22H39.8802V68.95H45.8602V70.22H43.6502V76H42.0902ZM50.1205 76.09C49.4205 76.09 48.8105 75.9433 48.2905 75.65C47.7771 75.35 47.3805 74.93 47.1005 74.39C46.8205 73.8433 46.6805 73.2033 46.6805 72.47C46.6805 71.7367 46.8205 71.1 47.1005 70.56C47.3805 70.0133 47.7771 69.5933 48.2905 69.3C48.8105 69.0067 49.4205 68.86 50.1205 68.86C50.8205 68.86 51.4271 69.0067 51.9405 69.3C52.4605 69.5933 52.8605 70.0133 53.1405 70.56C53.4205 71.1 53.5605 71.7367 53.5605 72.47C53.5605 73.2033 53.4205 73.8433 53.1405 74.39C52.8605 74.93 52.4605 75.35 51.9405 75.65C51.4271 75.9433 50.8205 76.09 50.1205 76.09ZM50.1205 74.88C50.7071 74.88 51.1671 74.6733 51.5005 74.26C51.8405 73.8467 52.0105 73.25 52.0105 72.47C52.0105 71.69 51.8438 71.0967 51.5105 70.69C51.1771 70.2767 50.7138 70.07 50.1205 70.07C49.5271 70.07 49.0638 70.2767 48.7305 70.69C48.4038 71.0967 48.2405 71.69 48.2405 72.47C48.2405 73.25 48.4071 73.8467 48.7405 74.26C49.0738 74.6733 49.5338 74.88 50.1205 74.88ZM61.4716 76H59.7716L58.5516 73.75C58.4516 73.5767 58.3316 73.4533 58.1916 73.38C58.0516 73.3 57.8749 73.26 57.6616 73.26H56.8916V76H55.3516V68.95H58.5916C59.4182 68.95 60.0416 69.1333 60.4616 69.5C60.8882 69.86 61.1016 70.3833 61.1016 71.07C61.1016 71.6033 60.9516 72.05 60.6516 72.41C60.3582 72.77 59.9416 73.0067 59.4016 73.12C59.7682 73.2133 60.0782 73.4767 60.3316 73.91L61.4716 76ZM58.3616 72.08C58.8082 72.08 59.1316 72.0033 59.3316 71.85C59.5316 71.69 59.6316 71.4433 59.6316 71.11C59.6316 70.77 59.5316 70.5233 59.3316 70.37C59.1316 70.2167 58.8082 70.14 58.3616 70.14H56.8716V72.08H58.3616ZM62.9633 76V68.95H67.8233V70.16H64.4833V71.81H67.6233V73.02H64.4833V74.79H67.8233V76H62.9633ZM71.8634 76.09C71.33 76.09 70.8167 76.02 70.3234 75.88C69.83 75.7333 69.42 75.5333 69.0934 75.28L69.5934 74.17C70.2734 74.6433 71.0367 74.88 71.8834 74.88C72.3234 74.88 72.66 74.81 72.8934 74.67C73.1334 74.5233 73.2534 74.3233 73.2534 74.07C73.2534 73.8433 73.1434 73.6667 72.9234 73.54C72.71 73.4133 72.3267 73.29 71.7734 73.17C71.1534 73.0433 70.6567 72.89 70.2834 72.71C69.9167 72.53 69.6467 72.31 69.4734 72.05C69.3067 71.7833 69.2234 71.4567 69.2234 71.07C69.2234 70.6433 69.34 70.2633 69.5734 69.93C69.8134 69.5967 70.1467 69.3367 70.5734 69.15C71 68.9567 71.4934 68.86 72.0534 68.86C72.5534 68.86 73.0334 68.9333 73.4934 69.08C73.96 69.2267 74.33 69.4233 74.6034 69.67L74.1034 70.78C73.4567 70.3067 72.7767 70.07 72.0634 70.07C71.6567 70.07 71.3367 70.15 71.1034 70.31C70.87 70.4633 70.7534 70.6767 70.7534 70.95C70.7534 71.11 70.7967 71.2433 70.8834 71.35C70.9767 71.45 71.1267 71.54 71.3334 71.62C71.5467 71.7 71.8467 71.7833 72.2334 71.87C73.14 72.07 73.79 72.3267 74.1834 72.64C74.5834 72.9533 74.7834 73.3867 74.7834 73.94C74.7834 74.6067 74.5267 75.1333 74.0134 75.52C73.5 75.9 72.7834 76.09 71.8634 76.09Z" fill="url(#paint1_linear_759_14765)"/>
<path d="M61.5131 57.5L59.9716 56.6059L66.4869 45.5L68.0125 46.3941L61.5131 57.5ZM59.9081 52.5588C58.9864 52.5588 58.2713 52.2556 57.7628 51.649C57.2543 51.032 57 50.2059 57 49.1706C57 48.1353 57.2543 47.3144 57.7628 46.7078C58.2819 46.1013 58.997 45.798 59.9081 45.798C60.8191 45.798 61.5289 46.1065 62.0375 46.7235C62.5566 47.3301 62.8161 48.1458 62.8161 49.1706C62.8161 50.2059 62.5566 51.032 62.0375 51.649C61.5289 52.2556 60.8191 52.5588 59.9081 52.5588ZM59.9081 51.0529C60.2153 51.0529 60.4537 50.9065 60.6232 50.6137C60.8033 50.3105 60.8933 49.8294 60.8933 49.1706C60.8933 48.5118 60.8033 48.0412 60.6232 47.7588C60.4537 47.466 60.2153 47.3196 59.9081 47.3196C59.5902 47.3196 59.3466 47.4608 59.1771 47.7431C59.0076 48.0255 58.9228 48.5013 58.9228 49.1706C58.9228 49.8503 59.0076 50.3366 59.1771 50.6294C59.3466 50.9118 59.5902 51.0529 59.9081 51.0529ZM68.0919 57.202C67.1703 57.202 66.4552 56.8987 65.9467 56.2922C65.4381 55.6752 65.1839 54.8438 65.1839 53.798C65.1839 52.7627 65.4381 51.9471 65.9467 51.351C66.4658 50.7444 67.1809 50.4412 68.0919 50.4412C69.003 50.4412 69.7128 50.7444 70.2213 51.351C70.7404 51.9575 71 52.7732 71 53.798C71 54.8438 70.7457 55.6752 70.2372 56.2922C69.7287 56.8987 69.0136 57.202 68.0919 57.202ZM68.0919 55.6804C68.4098 55.6804 68.6534 55.534 68.8229 55.2412C68.9924 54.9484 69.0772 54.4673 69.0772 53.798C69.0772 53.1497 68.9871 52.6791 68.807 52.3863C68.6375 52.0935 68.3992 51.9471 68.0919 51.9471C67.7741 51.9471 67.5305 52.0882 67.361 52.3706C67.1914 52.6529 67.1067 53.1288 67.1067 53.798C67.1067 54.4778 67.1914 54.9641 67.361 55.2569C67.5305 55.5392 67.7741 55.6804 68.0919 55.6804Z" fill="url(#paint2_linear_759_14765)"/>
<path d="M48.7167 59H52.3647V62H41.3247V59H44.9727V49.232L42.0927 50.912L40.6767 48.224L46.0527 45.08H48.7167V59Z" fill="url(#paint3_linear_759_14765)"/>
<circle cx="85" cy="22" r="1" fill="url(#paint4_linear_759_14765)"/>
<circle cx="89" cy="27" r="1" fill="url(#paint5_linear_759_14765)"/>
<circle cx="23" cy="22" r="1" fill="url(#paint6_linear_759_14765)"/>
<circle cx="19" cy="27" r="1" fill="url(#paint7_linear_759_14765)"/>
<path d="M80.5291 18.9685C80.8085 19.097 81.097 18.8085 80.9685 18.5291L80.329 17.1384C80.2887 17.0506 80.2887 16.9494 80.329 16.8616L80.9685 15.4709C81.097 15.1915 80.8085 14.903 80.5291 15.0315L79.1384 15.671C79.0506 15.7113 78.9494 15.7113 78.8616 15.671L77.4709 15.0315C77.1914 14.903 76.903 15.1915 77.0315 15.4709L77.671 16.8616C77.7113 16.9494 77.7113 17.0506 77.671 17.1384L77.0315 18.5291C76.903 18.8086 77.1915 19.097 77.4709 18.9685L78.8616 18.329C78.9494 18.2887 79.0506 18.2887 79.1384 18.329L80.5291 18.9685Z" fill="url(#paint8_linear_759_14765)"/>
<path d="M30.5291 18.9685C30.8085 19.097 31.097 18.8085 30.9685 18.5291L30.329 17.1384C30.2887 17.0506 30.2887 16.9494 30.329 16.8616L30.9685 15.4709C31.097 15.1915 30.8085 14.903 30.5291 15.0315L29.1384 15.671C29.0506 15.7113 28.9494 15.7113 28.8616 15.671L27.4709 15.0315C27.1914 14.903 26.903 15.1915 27.0315 15.4709L27.671 16.8616C27.7113 16.9494 27.7113 17.0506 27.671 17.1384L27.0315 18.5291C26.903 18.8086 27.1915 19.097 27.4709 18.9685L28.8616 18.329C28.9494 18.2887 29.0506 18.2887 29.1384 18.329L30.5291 18.9685Z" fill="url(#paint9_linear_759_14765)"/>
<path fill-rule="evenodd" clip-rule="evenodd" d="M100.196 44C97.7851 19.7074 77.9989 0.8 54 0.8C30.0011 0.8 10.2149 19.7074 7.80377 44H7C9.41488 19.2867 29.5359 0 54 0C78.4641 0 98.5852 19.2867 101 44H100.196Z" fill="url(#paint10_linear_759_14765)"/>
<path d="M42.6022 39V30.908H39.5082V29.13H47.8802V30.908H44.7862V39H42.6022ZM53.4047 39.126C52.4247 39.126 51.5707 38.9207 50.8427 38.51C50.124 38.09 49.5687 37.502 49.1767 36.746C48.7847 35.9807 48.5887 35.0847 48.5887 34.058C48.5887 33.0313 48.7847 32.14 49.1767 31.384C49.5687 30.6187 50.124 30.0307 50.8427 29.62C51.5707 29.2093 52.4247 29.004 53.4047 29.004C54.3847 29.004 55.234 29.2093 55.9527 29.62C56.6807 30.0307 57.2407 30.6187 57.6327 31.384C58.0247 32.14 58.2207 33.0313 58.2207 34.058C58.2207 35.0847 58.0247 35.9807 57.6327 36.746C57.2407 37.502 56.6807 38.09 55.9527 38.51C55.234 38.9207 54.3847 39.126 53.4047 39.126ZM53.4047 37.432C54.226 37.432 54.87 37.1427 55.3367 36.564C55.8127 35.9853 56.0507 35.15 56.0507 34.058C56.0507 32.966 55.8173 32.1353 55.3507 31.566C54.884 30.9873 54.2353 30.698 53.4047 30.698C52.574 30.698 51.9253 30.9873 51.4587 31.566C51.0013 32.1353 50.7727 32.966 50.7727 34.058C50.7727 35.15 51.006 35.9853 51.4727 36.564C51.9393 37.1427 52.5833 37.432 53.4047 37.432ZM60.2882 29.13H64.8242C65.8975 29.13 66.7329 29.4007 67.3302 29.942C67.9275 30.4833 68.2262 31.2393 68.2262 32.21C68.2262 33.1807 67.9275 33.9367 67.3302 34.478C66.7329 35.0193 65.8975 35.29 64.8242 35.29H62.4722V39H60.2882V29.13ZM64.5442 33.638C65.6362 33.638 66.1822 33.1667 66.1822 32.224C66.1822 31.7387 66.0469 31.3793 65.7762 31.146C65.5055 30.9127 65.0949 30.796 64.5442 30.796H62.4722V33.638H64.5442Z" fill="url(#paint11_linear_759_14765)"/>
<path d="M14.5379 40.3217C14.6966 39.8928 15.3034 39.8928 15.4621 40.3217L16.2521 42.4568C16.302 42.5916 16.4084 42.698 16.5432 42.7479L18.6783 43.5379C19.1072 43.6966 19.1072 44.3034 18.6783 44.4621L16.5432 45.2521C16.4084 45.302 16.302 45.4084 16.2521 45.5432L15.4621 47.6783C15.3034 48.1072 14.6966 48.1072 14.5379 47.6783L13.7479 45.5432C13.698 45.4084 13.5916 45.302 13.4568 45.2521L11.3217 44.4621C10.8928 44.3034 10.8928 43.6966 11.3217 43.5379L13.4568 42.7479C13.5916 42.698 13.698 42.5916 13.7479 42.4568L14.5379 40.3217Z" fill="url(#paint12_linear_759_14765)"/>
<path d="M92.5379 40.3217C92.6966 39.8928 93.3034 39.8928 93.4621 40.3217L94.2521 42.4568C94.302 42.5916 94.4084 42.698 94.5432 42.7479L96.6783 43.5379C97.1072 43.6966 97.1072 44.3034 96.6783 44.4621L94.5432 45.2521C94.4084 45.302 94.302 45.4084 94.2521 45.5432L93.4621 47.6783C93.3034 48.1072 92.6966 48.1072 92.5379 47.6783L91.7479 45.5432C91.698 45.4084 91.5916 45.302 91.4568 45.2521L89.3217 44.4621C88.8928 44.3034 88.8928 43.6966 89.3217 43.5379L91.4568 42.7479C91.5916 42.698 91.698 42.5916 91.7479 42.4568L92.5379 40.3217Z" fill="url(#paint13_linear_759_14765)"/>
<path d="M46.9122 6C46.4084 6 46 6.40841 46 6.9122V21.0878C46 21.5916 46.4084 22 46.9122 22H61.0877C61.5915 22 61.9999 21.5916 61.9999 21.0878V15.0947C61.9999 14.8064 61.6484 14.6651 61.4489 14.8733L58.289 18.1707C56.9388 19.5797 55.5295 20.2802 54.061 20.2724C52.6041 20.2762 51.2205 19.623 49.9102 18.3127C48.5188 16.9212 47.7857 15.4114 47.711 13.7833C47.6523 12.2799 48.2391 10.8304 49.4715 9.43494C49.6276 9.25816 49.8958 9.25582 50.0624 9.42244L52.8369 12.1969C53.0021 12.3622 53.0038 12.6308 52.8595 12.8152C52.189 13.672 52.1636 14.4103 52.7834 15.0301C53.4096 15.6562 54.1084 15.5668 54.8799 14.7616L61.9109 7.42462C61.968 7.36504 61.9999 7.28572 61.9999 7.20321V6.9122C61.9999 6.40841 61.5915 6 61.0877 6H46.9122Z" fill="url(#paint14_linear_759_14765)"/>
</g>
<defs>
<linearGradient id="paint0_linear_759_14765" x1="54.0023" y1="40" x2="54.0023" y2="108.03" gradientUnits="userSpaceOnUse">
<stop stop-color="#EFBD59"/>
<stop offset="1" stop-color="#D2920F"/>
</linearGradient>
<linearGradient id="paint1_linear_759_14765" x1="54" y1="61" x2="54" y2="84" gradientUnits="userSpaceOnUse">
<stop stop-color="#EFBD59"/>
<stop offset="1" stop-color="#D2920F"/>
</linearGradient>
<linearGradient id="paint2_linear_759_14765" x1="64" y1="45.5" x2="64" y2="57.5" gradientUnits="userSpaceOnUse">
<stop stop-color="#EFBD59"/>
<stop offset="1" stop-color="#D2920F"/>
</linearGradient>
<linearGradient id="paint3_linear_759_14765" x1="46" y1="43" x2="46" y2="66" gradientUnits="userSpaceOnUse">
<stop stop-color="#EFBD59"/>
<stop offset="1" stop-color="#D2920F"/>
</linearGradient>
<linearGradient id="paint4_linear_759_14765" x1="85" y1="21" x2="85" y2="23" gradientUnits="userSpaceOnUse">
<stop stop-color="#EFBD59"/>
<stop offset="1" stop-color="#D2920F"/>
</linearGradient>
<linearGradient id="paint5_linear_759_14765" x1="89" y1="26" x2="89" y2="28" gradientUnits="userSpaceOnUse">
<stop stop-color="#EFBD59"/>
<stop offset="1" stop-color="#D2920F"/>
</linearGradient>
<linearGradient id="paint6_linear_759_14765" x1="23" y1="21" x2="23" y2="23" gradientUnits="userSpaceOnUse">
<stop stop-color="#EFBD59"/>
<stop offset="1" stop-color="#D2920F"/>
</linearGradient>
<linearGradient id="paint7_linear_759_14765" x1="19" y1="26" x2="19" y2="28" gradientUnits="userSpaceOnUse">
<stop stop-color="#EFBD59"/>
<stop offset="1" stop-color="#D2920F"/>
</linearGradient>
<linearGradient id="paint8_linear_759_14765" x1="79" y1="15" x2="79" y2="19" gradientUnits="userSpaceOnUse">
<stop stop-color="#EFBD59"/>
<stop offset="1" stop-color="#D2920F"/>
</linearGradient>
<linearGradient id="paint9_linear_759_14765" x1="29" y1="15" x2="29" y2="19" gradientUnits="userSpaceOnUse">
<stop stop-color="#EFBD59"/>
<stop offset="1" stop-color="#D2920F"/>
</linearGradient>
<linearGradient id="paint10_linear_759_14765" x1="54" y1="0" x2="54" y2="44" gradientUnits="userSpaceOnUse">
<stop stop-color="#EFBD59"/>
<stop offset="1" stop-color="#EEBB54"/>
</linearGradient>
<linearGradient id="paint11_linear_759_14765" x1="54" y1="23" x2="54" y2="46" gradientUnits="userSpaceOnUse">
<stop stop-color="#EFBD59"/>
<stop offset="1" stop-color="#D2920F"/>
</linearGradient>
<linearGradient id="paint12_linear_759_14765" x1="15" y1="40" x2="15" y2="48" gradientUnits="userSpaceOnUse">
<stop stop-color="#EFBD59"/>
<stop offset="1" stop-color="#D2920F"/>
</linearGradient>
<linearGradient id="paint13_linear_759_14765" x1="93" y1="40" x2="93" y2="48" gradientUnits="userSpaceOnUse">
<stop stop-color="#EFBD59"/>
<stop offset="1" stop-color="#D2920F"/>
</linearGradient>
<linearGradient id="paint14_linear_759_14765" x1="53.9999" y1="6" x2="53.9999" y2="22" gradientUnits="userSpaceOnUse">
<stop stop-color="#EFBD59"/>
<stop offset="1" stop-color="#D2920F"/>
</linearGradient>
<clipPath id="clip0_759_14765">
<rect width="108" height="108" fill="white"/>
</clipPath>
</defs>
</svg>