<?xml version="1.0" encoding="utf-8"?>
<svg xmlns="http://www.w3.org/2000/svg" width="108" height="108" viewBox="0 0 108 108" fill="none">
<g clip-path="url(#clip0_2111_1330)">
<path d="M11.7257 48.5528C10.8903 49.1629 10.1446 49.926 9.51736 50.8129C9.0113 51.6183 8.59216 52.4932 8.2694 53.4181C8.15366 52.3937 7.96692 51.382 7.71103 50.3928C7.44982 49.1187 7.02533 47.8979 6.45191 46.7715C5.8134 45.4765 4.95905 44.3438 3.93924 43.4401C3.37785 42.9625 2.75233 42.5972 2.08824 42.3589C2.04078 42.652 1.97098 43.1437 1.91515 43.7722C1.88297 44.5327 1.90258 45.295 1.97378 46.0518C2.14129 47.7745 2.45397 49.7675 3.54559 51.5065C5.14532 54.1671 7.06891 54.7631 8.01255 54.978C8.02787 55.5234 7.99418 56.0691 7.91205 56.6063C9.02879 56.5021 11.2427 55.9028 13.5544 53.9587C14.2258 53.3934 14.8427 52.7448 15.3942 52.0243C15.8998 51.4623 16.3614 50.8487 16.7734 50.1909C17.0801 49.6992 17.3527 49.1797 17.5886 48.6375C17.7671 48.3228 17.9302 47.9967 18.0772 47.6605C17.3046 47.4072 16.5066 47.2747 15.7041 47.2665C15.0637 47.2611 14.4249 47.3408 13.8001 47.5042C13.0672 47.7295 12.3678 48.083 11.7257 48.5528Z" fill="url(#paint0_linear_2111_1330)"/>
<path d="M14.7298 38.2165C13.8215 38.5306 12.9765 39.0545 12.2451 39.7569C11.5851 40.3625 10.9866 41.0542 10.4611 41.8183C10.6002 40.8392 10.66 39.847 10.6398 38.8548C10.5895 37.5827 10.4267 36.3201 10.154 35.087C9.36948 31.7034 7.50732 30.1208 6.92382 29.7495C6.54301 30.857 6.25686 32.0056 6.06951 33.1787C5.80463 35.0326 5.93601 36.9342 6.452 38.7148C6.80558 39.9363 7.42172 41.0317 8.24157 41.8964C8.754 42.4453 9.33716 42.897 9.96973 43.2349C9.89582 43.7625 9.74472 44.2714 9.52303 44.7394C11.4932 45.0683 13.503 44.7468 15.3245 43.8113C16.7247 43.2029 18.0173 42.3 19.1382 41.1474C19.8013 40.5651 20.3971 39.8854 20.911 39.1251C19.9873 38.4927 18.9631 38.0861 17.9005 37.9299C16.8379 37.7737 15.7591 37.8712 14.7298 38.2165Z" fill="url(#paint1_linear_2111_1330)"/>
<path d="M19.836 29.0561C18.9135 29.1353 18.0078 29.3859 17.153 29.7985C16.4127 30.1746 15.7241 30.6761 15.1094 31.2868C15.3948 30.3779 15.6344 29.4504 15.8269 28.509C16.0898 27.3199 16.1981 26.0915 16.148 24.8649C16.1076 23.4653 15.8226 22.0901 15.3104 20.8235C15.0219 20.1389 14.6379 19.5149 14.1741 18.9771C13.5543 19.7716 11.5917 23.3571 11.9407 27.2487C12.2589 30.2805 13.6158 31.8078 14.3137 32.4591C14.111 32.9173 13.8637 33.3468 13.5767 33.739C15.3784 34.5879 17.3425 34.8567 19.2637 34.5173C20.0404 34.3769 20.8054 34.159 21.5502 33.866C22.1858 33.6526 22.8034 33.3725 23.3956 33.029C23.9205 32.7327 24.3253 32.4005 24.6827 32.153C25.04 31.9055 25.308 31.7036 25.4616 31.5799C24.9155 30.9725 24.3012 30.4544 23.6357 30.0395C22.4763 29.2933 21.1572 28.9519 19.836 29.0561Z" fill="url(#paint2_linear_2111_1330)"/>
<path d="M26.6872 21.5693C26.2277 21.4597 25.7603 21.4008 25.2913 21.3934C24.8641 21.4099 24.4386 21.4632 24.0182 21.553C23.2517 21.7263 22.503 21.9937 21.7847 22.3509C22.2734 21.6134 22.6953 20.8189 23.0438 19.9801C23.2542 19.4591 23.4406 18.9254 23.6022 18.3811C23.7989 17.8124 23.954 17.2252 24.0657 16.6259C24.6882 13.3856 23.7306 11.1321 23.3789 10.5361C22.7032 11.2233 20.0566 13.8806 19.649 17.7005C19.5087 18.6669 19.5394 19.6566 19.7391 20.6086C19.9388 21.5607 20.3034 22.455 20.8104 23.2367C20.552 23.6382 20.2366 23.9851 19.8779 24.2625C21.3826 25.5646 23.1678 26.3538 25.0344 26.542C26.743 26.8156 28.1055 26.516 29.2222 26.2783C29.9934 26.1204 30.744 25.8479 31.4557 25.4674C30.9286 24.4748 30.2342 23.6175 29.4145 22.9474C28.5948 22.2773 27.6669 21.8085 26.6872 21.5693Z" fill="url(#paint3_linear_2111_1330)"/>
<path d="M34.8982 16.2416C34.1059 15.8381 33.2632 15.5852 32.4023 15.4926C32.0057 15.4405 31.6061 15.4253 31.2074 15.447C30.8361 15.4926 30.4787 15.5577 30.1437 15.6359C30.381 15.3949 30.6462 15.1083 30.9198 14.7729C31.1934 14.4375 31.5033 14.1216 31.7993 13.7406C32.4688 12.8826 33.024 11.9122 33.4465 10.8618C34.0272 9.354 34.2673 8.15885 34.284 7.11024C34.299 6.3951 34.2122 5.68202 34.0272 5C33.2231 5.32565 30.2889 7.31215 29.0744 10.6338C28.4412 12.4141 28.4352 14.4138 29.0577 16.1993C28.7216 16.4921 28.3434 16.7126 27.9409 16.8506C29.0867 18.5094 30.6081 19.7606 32.3325 20.4621C33.815 21.0287 35.2528 21.3837 36.336 21.3739C37.4193 21.3641 38.2652 21.2925 38.617 21.2306C38.3946 20.4493 38.0829 19.7066 37.6901 19.0227C37.005 17.805 36.0365 16.8403 34.8982 16.2416Z" fill="url(#paint4_linear_2111_1330)"/>
<path d="M96.249 48.5042C97.0858 49.1107 97.8333 49.8706 98.4629 50.7545C98.9718 51.5589 99.3929 52.434 99.7165 53.3597C99.8272 52.3349 100.008 51.3221 100.258 50.3311C100.515 49.0489 100.937 47.8193 101.509 46.6838C102.146 45.3852 103.001 44.2491 104.022 43.3426C104.582 42.8613 105.208 42.4936 105.873 42.2549C105.917 42.548 105.99 43.0365 106.048 43.6682C106.083 44.4285 106.065 45.1908 105.995 45.9478C105.833 47.6705 105.526 49.6635 104.44 51.4058C102.846 54.0761 100.925 54.6786 99.9733 54.8968C99.9599 55.4424 99.9954 55.9881 100.079 56.5251C98.9627 56.4274 96.7487 55.8347 94.4287 53.897C93.7564 53.3342 93.1378 52.6889 92.5833 51.9724C92.0777 51.4117 91.6153 50.8004 91.2013 50.1455C90.8939 49.6553 90.6195 49.1382 90.3805 48.5986C90.1404 48.172 89.9813 47.8333 89.8892 47.6217C90.6615 47.3656 91.4594 47.2298 92.2622 47.2179C92.9033 47.2101 93.5431 47.2877 94.1691 47.4491C94.9047 47.6741 95.6062 48.03 96.249 48.5042Z" fill="url(#paint5_linear_2111_1330)"/>
<path d="M93.2199 38.1872C94.1297 38.4962 94.9761 39.0181 95.7074 39.7211C96.3703 40.3226 96.9717 41.0109 97.4998 41.7727C97.3576 40.795 97.2949 39.8039 97.3127 38.8125C97.3575 37.5385 97.5166 36.2735 97.7873 35.0382C98.5607 31.6318 100.417 30.0524 101.001 29.6812C101.385 30.786 101.675 31.9324 101.866 33.1038C102.139 34.9628 102.012 36.8715 101.498 38.6594C101.149 39.8822 100.536 40.98 99.7193 41.8476C99.2086 42.3986 98.6274 42.8534 97.9967 43.1958C98.0708 43.7228 98.2229 44.2308 98.4462 44.6971C96.477 45.0333 94.4663 44.7197 92.642 43.7918C91.24 43.1903 89.9446 42.2941 88.8199 41.1474C88.1551 40.569 87.5573 39.8926 87.0415 39.1349C87.9623 38.4963 88.985 38.0829 90.0471 37.92C91.1093 37.7571 92.1888 37.848 93.2199 38.1872Z" fill="url(#paint6_linear_2111_1330)"/>
<path d="M88.0885 29.0367C89.0114 29.1131 89.918 29.3604 90.7742 29.7694C91.5141 30.1422 92.2027 30.6404 92.8179 31.2479C92.5308 30.3402 92.2894 29.4138 92.0948 28.4733C91.8278 27.2805 91.7158 26.0478 91.7625 24.8162C91.7975 23.4166 92.0778 22.0401 92.5861 20.7716C92.8674 20.0867 93.2449 19.4615 93.7029 18.9219C94.3255 19.7132 96.2993 23.2889 95.9671 27.1837C95.66 30.2156 94.3087 31.7429 93.6108 32.3942C93.8197 32.8567 94.0725 33.2904 94.3646 33.687C92.5636 34.5474 90.5975 34.8275 88.672 34.4979C87.8943 34.3578 87.1283 34.1399 86.3827 33.8466C85.7465 33.6362 85.128 33.3594 84.5344 33.0195C84.0068 32.7231 83.602 32.3909 83.2446 32.1467C82.8873 31.9025 82.6164 31.7006 82.4629 31.5768C83.0086 30.9685 83.6217 30.4482 84.286 30.0299C85.4454 29.2799 86.7655 28.935 88.0885 29.0367Z" fill="url(#paint7_linear_2111_1330)"/>
<path d="M81.2149 21.5791C81.6741 21.4656 82.1416 21.4045 82.6109 21.3967C83.0381 21.4102 83.4637 21.4624 83.8839 21.553C84.6572 21.72 85.4126 21.9843 86.137 22.3411C85.6404 21.6078 85.21 20.8166 84.8527 19.9801C84.6423 19.4602 84.4559 18.9275 84.2944 18.3844C84.0948 17.8159 83.937 17.2287 83.8225 16.6291C83.1972 13.3856 84.1464 11.1321 84.4898 10.5361C85.1682 11.2233 87.8233 13.8676 88.242 17.7005C88.3855 18.6649 88.3587 19.6534 88.1633 20.6053C87.9679 21.5572 87.6081 22.4526 87.1057 23.2367C87.3645 23.637 87.681 23.9819 88.041 24.2559C86.5385 25.5561 84.7565 26.3451 82.8928 26.5355C81.1842 26.8156 79.8218 26.5355 78.7051 26.288C77.9283 26.1363 77.1718 25.867 76.4548 25.4869C76.98 24.4935 77.6727 23.6348 78.491 22.9631C79.3093 22.2913 80.236 21.8205 81.2149 21.5791Z" fill="url(#paint8_linear_2111_1330)"/>
<path d="M72.9818 16.2805C73.7722 15.8751 74.6128 15.619 75.4721 15.5217C75.8697 15.4687 76.2701 15.4523 76.6698 15.4729C77.0412 15.5152 77.3985 15.5803 77.7335 15.6585C77.4934 15.4175 77.231 15.1309 76.9546 14.7988C76.6782 14.4666 76.3683 14.1475 76.0724 13.7697C75.4037 12.9134 74.8485 11.9453 74.4252 10.8974C73.8417 9.3929 73.5876 8.19775 73.5876 7.14588C73.5678 6.43163 73.6499 5.7185 73.8305 5.03564C74.6458 5.3613 77.5744 7.33476 78.7972 10.6532C79.4358 12.4309 79.4478 14.4306 78.8307 16.2186C79.1668 16.5114 79.545 16.732 79.9475 16.8699C78.8062 18.5345 77.2877 19.7925 75.5643 20.501C74.0846 21.0741 72.6468 21.4323 71.5663 21.4258C70.4859 21.4193 69.6372 21.3509 69.2854 21.2923C69.5092 20.5101 69.8219 19.7664 70.2151 19.0811C70.89 17.8594 71.8498 16.8878 72.9818 16.2805Z" fill="url(#paint9_linear_2111_1330)"/>
<path fill-rule="evenodd" clip-rule="evenodd" d="M25 97.168C23.8634 96.2162 22.7645 95.1941 21.7084 94.1039C14.2266 86.3811 9.39186 75.7625 8.09637 64.2074C7.40356 58.2985 7.68021 52.2899 8.91159 46.5016C10.7605 37.7984 14.6475 29.8662 20.1381 23.5911C25.6288 17.3159 32.507 12.9449 40.0044 10.9662C40.0711 10.9453 40.1407 10.9404 40.209 10.9518C40.2773 10.9631 40.343 10.9905 40.402 11.0322C40.461 11.074 40.5121 11.1293 40.5523 11.1947C40.5925 11.2601 40.6209 11.3344 40.6358 11.413C40.6507 11.4916 40.6518 11.5729 40.639 11.652C40.6263 11.7311 40.5999 11.8064 40.5615 11.8733C40.5231 11.9402 40.4735 11.9973 40.4157 12.0412C40.3578 12.0851 40.293 12.1149 40.225 12.1288C32.9118 14.0595 26.2026 18.3234 20.8467 24.4443C15.4907 30.5652 11.6988 38.3023 9.89432 46.7914C8.69537 52.4342 8.42724 58.2915 9.10422 64.0511C10.4093 75.6703 15.3792 86.3054 23.0439 93.881C23.6802 94.5124 24.3327 95.1193 25 95.701V97.168ZM83 97.2748C84.1602 96.3041 85.2811 95.2602 86.3575 94.1454C93.8453 86.3903 98.6689 75.7318 99.9344 64.1453C100.611 58.2339 100.318 52.2261 99.0689 46.4428C97.194 37.7461 93.2836 29.8285 87.7743 23.5742C82.265 17.3198 75.3737 12.9749 67.8699 11.0246C67.741 11.0005 67.6091 11.0349 67.5013 11.1206C67.3934 11.2064 67.3178 11.3371 67.29 11.4858C67.2621 11.6346 67.2841 11.7901 67.3515 11.9206C67.4188 12.051 67.5264 12.1464 67.6522 12.1872C74.9717 14.0891 81.6938 18.3273 87.0677 24.4282C92.4415 30.5291 96.2554 38.2526 98.0834 46.7359C99.2975 52.3752 99.5818 58.2324 98.9209 63.9955C97.6491 75.6206 92.7091 86.2756 85.0649 93.8808C84.3945 94.55 83.7056 95.1919 83 95.8059V97.2748Z" fill="url(#paint10_linear_2111_1330)"/>
<path d="M33.8704 87.245H35.6084L32.1214 95H30.7464L27.2484 87.245H29.0304L31.4504 92.866L33.8704 87.245ZM36.5973 95V87.245H41.9433V88.576H38.2693V90.391H41.7233V91.722H38.2693V93.669H41.9433V95H36.5973ZM50.2499 95H48.3799L47.0379 92.525C46.9279 92.3343 46.7959 92.1987 46.6419 92.118C46.4879 92.03 46.2935 91.986 46.0589 91.986H45.2119V95H43.5179V87.245H47.0819C47.9912 87.245 48.6769 87.4467 49.1389 87.85C49.6082 88.246 49.8429 88.8217 49.8429 89.577C49.8429 90.1637 49.6779 90.655 49.3479 91.051C49.0252 91.447 48.5669 91.7073 47.9729 91.832C48.3762 91.9347 48.7172 92.2243 48.9959 92.701L50.2499 95ZM46.8289 90.688C47.3202 90.688 47.6759 90.6037 47.8959 90.435C48.1159 90.259 48.2259 89.9877 48.2259 89.621C48.2259 89.247 48.1159 88.9757 47.8959 88.807C47.6759 88.6383 47.3202 88.554 46.8289 88.554H45.1899V90.688H46.8289ZM51.6307 95V87.245H53.3467V95H51.6307ZM55.2856 95V87.245H60.5216V88.598H56.9796V90.38H60.3016V91.733H56.9796V95H55.2856ZM61.9805 95V87.245H63.6965V95H61.9805ZM65.6354 95V87.245H70.9814V88.576H67.3074V90.391H70.7614V91.722H67.3074V93.669H70.9814V95H65.6354ZM72.5559 87.245H75.5699C76.4133 87.245 77.1393 87.399 77.7479 87.707C78.3566 88.015 78.8223 88.4587 79.1449 89.038C79.4676 89.6173 79.6289 90.3103 79.6289 91.117C79.6289 91.9237 79.4676 92.6203 79.1449 93.207C78.8296 93.7863 78.3676 94.23 77.7589 94.538C77.1503 94.846 76.4206 95 75.5699 95H72.5559V87.245ZM75.4489 93.614C77.0989 93.614 77.9239 92.7817 77.9239 91.117C77.9239 89.4597 77.0989 88.631 75.4489 88.631H74.2719V93.614H75.4489ZM34.6174 107H32.7474L31.4054 104.525C31.2954 104.334 31.1634 104.199 31.0094 104.118C30.8554 104.03 30.6611 103.986 30.4264 103.986H29.5794V107H27.8854V99.245H31.4494C32.3588 99.245 33.0444 99.4467 33.5064 99.85C33.9758 100.246 34.2104 100.822 34.2104 101.577C34.2104 102.164 34.0454 102.655 33.7154 103.051C33.3928 103.447 32.9344 103.707 32.3404 103.832C32.7438 103.935 33.0848 104.224 33.3634 104.701L34.6174 107ZM31.1964 102.688C31.6878 102.688 32.0434 102.604 32.2634 102.435C32.4834 102.259 32.5934 101.988 32.5934 101.621C32.5934 101.247 32.4834 100.976 32.2634 100.807C32.0434 100.638 31.6878 100.554 31.1964 100.554H29.5574V102.688H31.1964ZM35.9983 107V99.245H41.3443V100.576H37.6703V102.391H41.1243V103.722H37.6703V105.669H41.3443V107H35.9983ZM48.6378 99.245H50.3758L46.8888 107H45.5138L42.0158 99.245H43.7978L46.2178 104.866L48.6378 99.245ZM51.3647 107V99.245H53.0807V107H51.3647ZM55.0196 107V99.245H60.3656V100.576H56.6916V102.391H60.1456V103.722H56.6916V105.669H60.3656V107H55.0196ZM71.6521 99.245H73.2801L70.5191 107H69.1441L67.3511 101.863L65.5361 107H64.1611L61.4111 99.245H63.1491L64.9201 104.602L66.8011 99.245H68.0001L69.8151 104.657L71.6521 99.245ZM77.2065 107.099C76.6199 107.099 76.0552 107.022 75.5125 106.868C74.9699 106.707 74.5189 106.487 74.1595 106.208L74.7095 104.987C75.4575 105.508 76.2972 105.768 77.2285 105.768C77.7125 105.768 78.0829 105.691 78.3395 105.537C78.6035 105.376 78.7355 105.156 78.7355 104.877C78.7355 104.628 78.6145 104.433 78.3725 104.294C78.1379 104.155 77.7162 104.019 77.1075 103.887C76.4255 103.748 75.8792 103.579 75.4685 103.381C75.0652 103.183 74.7682 102.941 74.5775 102.655C74.3942 102.362 74.3025 102.002 74.3025 101.577C74.3025 101.108 74.4309 100.69 74.6875 100.323C74.9515 99.9563 75.3182 99.6703 75.7875 99.465C76.2569 99.2523 76.7995 99.146 77.4155 99.146C77.9655 99.146 78.4935 99.2267 78.9995 99.388C79.5129 99.5493 79.9199 99.7657 80.2205 100.037L79.6705 101.258C78.9592 100.737 78.2112 100.477 77.4265 100.477C76.9792 100.477 76.6272 100.565 76.3705 100.741C76.1139 100.91 75.9855 101.144 75.9855 101.445C75.9855 101.621 76.0332 101.768 76.1285 101.885C76.2312 101.995 76.3962 102.094 76.6235 102.182C76.8582 102.27 77.1882 102.362 77.6135 102.457C78.6109 102.677 79.3259 102.959 79.7585 103.304C80.1985 103.649 80.4185 104.125 80.4185 104.734C80.4185 105.467 80.1362 106.047 79.5715 106.472C79.0069 106.89 78.2185 107.099 77.2065 107.099Z" fill="url(#paint11_linear_2111_1330)"/>
<circle cx="83.5" cy="96.5" r="1.5" fill="url(#paint12_linear_2111_1330)"/>
<circle cx="24.5" cy="96.5" r="1.5" fill="url(#paint13_linear_2111_1330)"/>
<path d="M46.9122 3C46.4084 3 46 3.40841 46 3.9122V18.0878C46 18.5916 46.4084 19 46.9122 19H61.0877C61.5915 19 61.9999 18.5916 61.9999 18.0878V12.0947C61.9999 11.8064 61.6484 11.6651 61.4489 11.8733L58.289 15.1707C56.9388 16.5797 55.5295 17.2802 54.061 17.2724C52.6041 17.2762 51.2205 16.623 49.9102 15.3127C48.5188 13.9212 47.7857 12.4114 47.711 10.7833C47.6523 9.27989 48.2391 7.83045 49.4715 6.43494C49.6276 6.25816 49.8958 6.25582 50.0624 6.42244L52.8369 9.19695C53.0021 9.36215 53.0038 9.63084 52.8595 9.81521C52.189 10.672 52.1636 11.4103 52.7834 12.0301C53.4096 12.6562 54.1084 12.5668 54.8799 11.7616L61.9109 4.42462C61.968 4.36504 61.9999 4.28572 61.9999 4.20321V3.9122C61.9999 3.40841 61.5915 3 61.0877 3H46.9122Z" fill="url(#paint14_linear_2111_1330)"/>
</g>
<path fill-rule="evenodd" clip-rule="evenodd" d="M54.6782 34.8783C55.3874 34.5587 55.8804 33.8513 55.8804 33.0299C55.8804 31.9088 54.962 31 53.8291 31C52.6962 31 51.7778 31.9088 51.7778 33.0299C51.7778 33.9969 52.461 34.8059 53.3758 35.0101C52.6258 36.9017 51.3635 39.2339 49.6604 39.3898C48.0239 39.5397 46.4482 37.6374 45.4295 36.0487C45.9604 35.6818 46.3077 35.0726 46.3077 34.3832C46.3077 33.2621 45.3893 32.3533 44.2564 32.3533C43.1235 32.3533 42.2051 33.2621 42.2051 34.3832C42.2051 35.465 43.0603 36.3491 44.1381 36.4098C43.9054 38.4603 43.2914 41.1626 41.6755 41.7921C40.1279 42.3951 38.2288 40.8758 36.9702 39.5818C37.6417 39.2483 38.1026 38.5606 38.1026 37.7664C38.1026 36.6453 37.1842 35.7365 36.0513 35.7365C34.9184 35.7365 34 36.6453 34 37.7664C34 38.8875 34.9184 39.7963 36.0513 39.7963C36.081 39.7963 36.1106 39.7957 36.14 39.7945L39.0717 49.5996C39.0717 49.5996 48.2448 47.7213 54.1736 47.7979C60.1178 47.8746 69.2755 50 69.2755 50L71.9298 39.7962C71.9361 39.7963 71.9424 39.7963 71.9487 39.7963C73.0816 39.7963 74 38.8875 74 37.7664C74 36.6453 73.0816 35.7365 71.9487 35.7365C70.8158 35.7365 69.8974 36.6453 69.8974 37.7664C69.8974 38.5388 70.3334 39.2104 70.9751 39.5535C69.4844 41.0217 67.1325 42.8457 65.4566 41.7921C64.1194 40.9515 63.6919 38.5802 63.5682 36.7448C64.6233 36.661 65.4531 35.7871 65.4531 34.7215C65.4531 33.6004 64.5347 32.6916 63.4018 32.6916C62.2689 32.6916 61.3505 33.6004 61.3505 34.7215C61.3505 35.4197 61.7068 36.0356 62.2492 36.4009C61.0826 37.9868 59.3027 39.8574 57.6453 39.3898C56.1181 38.959 55.1866 36.6817 54.6782 34.8783Z" fill="url(#paint15_linear_2111_1330)"/>
<defs>
<linearGradient id="paint0_linear_2111_1330" x1="9.98866" y1="42.3589" x2="9.98866" y2="56.6063" gradientUnits="userSpaceOnUse">
<stop stop-color="#316BAC"/>
<stop offset="1" stop-color="#4C8EDA"/>
</linearGradient>
<linearGradient id="paint1_linear_2111_1330" x1="13.4236" y1="29.7495" x2="13.4236" y2="44.8647" gradientUnits="userSpaceOnUse">
<stop stop-color="#316BAC"/>
<stop offset="1" stop-color="#4C8EDA"/>
</linearGradient>
<linearGradient id="paint2_linear_2111_1330" x1="18.6805" y1="18.9771" x2="18.6805" y2="34.66" gradientUnits="userSpaceOnUse">
<stop stop-color="#316BAC"/>
<stop offset="1" stop-color="#4C8EDA"/>
</linearGradient>
<linearGradient id="paint3_linear_2111_1330" x1="25.5091" y1="10.5361" x2="25.5091" y2="26.651" gradientUnits="userSpaceOnUse">
<stop stop-color="#316BAC"/>
<stop offset="1" stop-color="#4C8EDA"/>
</linearGradient>
<linearGradient id="paint4_linear_2111_1330" x1="33.2789" y1="5" x2="33.2789" y2="21.3741" gradientUnits="userSpaceOnUse">
<stop stop-color="#316BAC"/>
<stop offset="1" stop-color="#4C8EDA"/>
</linearGradient>
<linearGradient id="paint5_linear_2111_1330" x1="97.9773" y1="42.2549" x2="97.9773" y2="56.5251" gradientUnits="userSpaceOnUse">
<stop stop-color="#316BAC"/>
<stop offset="1" stop-color="#4C8EDA"/>
</linearGradient>
<linearGradient id="paint6_linear_2111_1330" x1="94.5238" y1="29.6812" x2="94.5238" y2="44.8282" gradientUnits="userSpaceOnUse">
<stop stop-color="#316BAC"/>
<stop offset="1" stop-color="#4C8EDA"/>
</linearGradient>
<linearGradient id="paint7_linear_2111_1330" x1="89.2337" y1="18.9219" x2="89.2337" y2="34.6321" gradientUnits="userSpaceOnUse">
<stop stop-color="#316BAC"/>
<stop offset="1" stop-color="#4C8EDA"/>
</linearGradient>
<linearGradient id="paint8_linear_2111_1330" x1="82.3938" y1="10.5361" x2="82.3938" y2="26.6524" gradientUnits="userSpaceOnUse">
<stop stop-color="#316BAC"/>
<stop offset="1" stop-color="#4C8EDA"/>
</linearGradient>
<linearGradient id="paint9_linear_2111_1330" x1="74.6164" y1="5.03564" x2="74.6164" y2="21.4259" gradientUnits="userSpaceOnUse">
<stop stop-color="#316BAC"/>
<stop offset="1" stop-color="#4C8EDA"/>
</linearGradient>
<linearGradient id="paint10_linear_2111_1330" x1="54.0067" y1="10.9458" x2="54.0067" y2="97.2748" gradientUnits="userSpaceOnUse">
<stop stop-color="#316BAC"/>
<stop offset="1" stop-color="#4C8EDA"/>
</linearGradient>
<linearGradient id="paint11_linear_2111_1330" x1="54" y1="85" x2="54" y2="108" gradientUnits="userSpaceOnUse">
<stop stop-color="#316BAC"/>
<stop offset="1" stop-color="#4C8EDA"/>
</linearGradient>
<linearGradient id="paint12_linear_2111_1330" x1="83.5" y1="95" x2="83.5" y2="98" gradientUnits="userSpaceOnUse">
<stop stop-color="#316BAC"/>
<stop offset="1" stop-color="#4C8EDA"/>
</linearGradient>
<linearGradient id="paint13_linear_2111_1330" x1="24.5" y1="95" x2="24.5" y2="98" gradientUnits="userSpaceOnUse">
<stop stop-color="#316BAC"/>
<stop offset="1" stop-color="#4C8EDA"/>
</linearGradient>
<linearGradient id="paint14_linear_2111_1330" x1="53.9999" y1="3" x2="53.9999" y2="19" gradientUnits="userSpaceOnUse">
<stop stop-color="#316BAC"/>
<stop offset="1" stop-color="#4C8EDA"/>
</linearGradient>
<linearGradient id="paint15_linear_2111_1330" x1="54" y1="31" x2="54" y2="50" gradientUnits="userSpaceOnUse">
<stop stop-color="#316BAC"/>
<stop offset="1" stop-color="#4C8EDA"/>
</linearGradient>
<clipPath id="clip0_2111_1330">
<rect width="108" height="108" fill="white"/>
</clipPath>
</defs>
</svg>