<?xml version="1.0" encoding="utf-8"?>
<svg xmlns="http://www.w3.org/2000/svg" width="108" height="108" viewBox="0 0 108 108" fill="none">
<circle cx="39.5" cy="99.5" r="1.5" fill="url(#paint0_linear_759_14938)"/>
<circle cx="68.5" cy="99.5" r="1.5" fill="url(#paint1_linear_759_14938)"/>
<path d="M48.7167 59H52.3647V62H41.3247V59H44.9727V49.232L42.0927 50.912L40.6767 48.224L46.0527 45.08H48.7167V59Z" fill="url(#paint2_linear_759_14938)"/>
<path d="M61.5131 57.5L59.9716 56.6059L66.4869 45.5L68.0125 46.3941L61.5131 57.5ZM59.9081 52.5588C58.9864 52.5588 58.2713 52.2556 57.7628 51.649C57.2543 51.032 57 50.2059 57 49.1706C57 48.1353 57.2543 47.3144 57.7628 46.7078C58.2819 46.1013 58.997 45.798 59.9081 45.798C60.8191 45.798 61.5289 46.1065 62.0375 46.7235C62.5566 47.3301 62.8161 48.1458 62.8161 49.1706C62.8161 50.2059 62.5566 51.032 62.0375 51.649C61.5289 52.2556 60.8191 52.5588 59.9081 52.5588ZM59.9081 51.0529C60.2153 51.0529 60.4537 50.9065 60.6232 50.6137C60.8033 50.3105 60.8933 49.8294 60.8933 49.1706C60.8933 48.5118 60.8033 48.0412 60.6232 47.7588C60.4537 47.466 60.2153 47.3196 59.9081 47.3196C59.5902 47.3196 59.3466 47.4608 59.1771 47.7431C59.0076 48.0255 58.9228 48.5013 58.9228 49.1706C58.9228 49.8503 59.0076 50.3366 59.1771 50.6294C59.3466 50.9118 59.5902 51.0529 59.9081 51.0529ZM68.0919 57.202C67.1703 57.202 66.4552 56.8987 65.9467 56.2922C65.4381 55.6752 65.1839 54.8438 65.1839 53.798C65.1839 52.7627 65.4381 51.9471 65.9467 51.351C66.4658 50.7444 67.1809 50.4412 68.0919 50.4412C69.003 50.4412 69.7128 50.7444 70.2213 51.351C70.7404 51.9575 71 52.7732 71 53.798C71 54.8438 70.7457 55.6752 70.2372 56.2922C69.7287 56.8987 69.0136 57.202 68.0919 57.202ZM68.0919 55.6804C68.4098 55.6804 68.6534 55.534 68.8229 55.2412C68.9924 54.9484 69.0772 54.4673 69.0772 53.798C69.0772 53.1497 68.9871 52.6791 68.807 52.3863C68.6375 52.0935 68.3992 51.9471 68.0919 51.9471C67.7741 51.9471 67.5305 52.0882 67.361 52.3706C67.1914 52.6529 67.1067 53.1288 67.1067 53.798C67.1067 54.4778 67.1914 54.9641 67.361 55.2569C67.5305 55.5392 67.7741 55.6804 68.0919 55.6804Z" fill="url(#paint3_linear_759_14938)"/>
<path d="M42.6022 37V28.908H39.5082V27.13H47.8802V28.908H44.7862V37H42.6022ZM53.4047 37.126C52.4247 37.126 51.5707 36.9207 50.8427 36.51C50.124 36.09 49.5687 35.502 49.1767 34.746C48.7847 33.9807 48.5887 33.0847 48.5887 32.058C48.5887 31.0313 48.7847 30.14 49.1767 29.384C49.5687 28.6187 50.124 28.0307 50.8427 27.62C51.5707 27.2093 52.4247 27.004 53.4047 27.004C54.3847 27.004 55.234 27.2093 55.9527 27.62C56.6807 28.0307 57.2407 28.6187 57.6327 29.384C58.0247 30.14 58.2207 31.0313 58.2207 32.058C58.2207 33.0847 58.0247 33.9807 57.6327 34.746C57.2407 35.502 56.6807 36.09 55.9527 36.51C55.234 36.9207 54.3847 37.126 53.4047 37.126ZM53.4047 35.432C54.226 35.432 54.87 35.1427 55.3367 34.564C55.8127 33.9853 56.0507 33.15 56.0507 32.058C56.0507 30.966 55.8173 30.1353 55.3507 29.566C54.884 28.9873 54.2353 28.698 53.4047 28.698C52.574 28.698 51.9253 28.9873 51.4587 29.566C51.0013 30.1353 50.7727 30.966 50.7727 32.058C50.7727 33.15 51.006 33.9853 51.4727 34.564C51.9393 35.1427 52.5833 35.432 53.4047 35.432ZM60.2882 27.13H64.8242C65.8975 27.13 66.7329 27.4007 67.3302 27.942C67.9275 28.4833 68.2262 29.2393 68.2262 30.21C68.2262 31.1807 67.9275 31.9367 67.3302 32.478C66.7329 33.0193 65.8975 33.29 64.8242 33.29H62.4722V37H60.2882V27.13ZM64.5442 31.638C65.6362 31.638 66.1822 31.1667 66.1822 30.224C66.1822 29.7387 66.0469 29.3793 65.7762 29.146C65.5055 28.9127 65.0949 28.796 64.5442 28.796H62.4722V31.638H64.5442Z" fill="url(#paint4_linear_759_14938)"/>
<path d="M15.7789 80.4812L15.5946 80.2536L15.2686 79.7556L14.8007 79.0158C14.82 78.2935 14.9296 77.5765 15.1268 76.8816C15.6441 76.8811 16.1484 76.7192 16.57 76.4184C16.9917 76.1177 17.3097 75.6928 17.4802 75.2027C17.6849 74.3748 17.733 73.5158 17.6219 72.6701C17.6219 72.2148 17.5369 71.7737 17.4944 71.4038C17.4518 71.0339 17.4944 70.7209 17.3951 70.5359C16.7004 70.9912 14.0919 72.8551 13.6099 74.1498C13.4913 74.426 13.4361 74.7253 13.4484 75.0258C13.4607 75.3263 13.5401 75.6201 13.6808 75.8856C13.8965 76.2358 14.1931 76.5286 14.5456 76.7393C14.418 77.0665 14.262 77.4649 14.0919 77.8633L13.7091 77.2088C13.4965 76.8247 13.1846 76.3124 12.9152 75.786L12.178 74.3632C12.0886 74.2018 12.0081 74.0356 11.937 73.8652L11.8519 73.6803L11.1431 72.101C11.2927 71.3946 11.5209 70.7073 11.8236 70.0522C12.3328 70.1284 12.8531 70.0483 13.3162 69.8223C13.7792 69.5963 14.1633 69.235 14.418 68.7859C14.7305 68.0345 14.9173 67.2365 14.9709 66.424C14.9709 65.9261 15.0417 65.4708 15.0701 65.0724C15.0985 64.674 15.0701 64.3468 15.0701 64.1618C14.3045 64.489 11.4692 65.8834 10.817 67.0928C10.6674 67.3301 10.5707 67.597 10.5335 67.8753C10.493 68.236 10.5461 68.6012 10.6877 68.9352C10.8293 69.2693 11.0545 69.5609 11.3416 69.7818C11.1714 70.0806 10.9446 70.4505 10.7178 70.8062L10.5477 70.3794C10.4626 70.1375 10.3066 69.8103 10.2074 69.4688L9.75374 68.046C9.75374 68.046 9.6545 67.7757 9.56944 67.5054C9.48438 67.235 9.41349 66.9647 9.41349 66.9647L8.94565 65.2858C9.20667 64.6323 9.53449 64.0076 9.92386 63.4219C10.4162 63.5704 10.9416 63.567 11.432 63.4123C11.9224 63.2575 12.3551 62.9585 12.6742 62.554C13.1246 61.8258 13.437 61.0202 13.5957 60.178C13.8083 59.2958 13.9926 58.4422 14.0352 58.0865C13.2271 58.2999 10.2216 59.2532 9.31426 60.3345C8.97286 60.7352 8.79364 61.2498 8.81201 61.7767C8.83039 62.3035 9.04502 62.8043 9.41349 63.1801L8.63376 64.0907C8.63376 64.0907 8.63376 63.7919 8.46364 63.365C8.29352 62.9382 8.27934 62.3264 8.16592 61.7431C8.05251 61.1597 7.95327 60.5621 7.91074 60.1211C7.86821 59.68 7.82568 59.3812 7.82568 59.3812L7.71226 58.5133C7.71226 58.2999 7.71226 58.0865 7.71226 57.9157C7.71226 57.745 7.71226 57.6454 7.71226 57.6454C8.07326 57.0255 8.49601 56.4439 8.97401 55.9096C9.43022 56.1433 9.94705 56.2304 10.4543 56.1592C10.9616 56.0879 11.4347 55.8617 11.8094 55.5112C12.3617 54.9112 12.7862 54.2043 13.057 53.4339C13.3755 52.7455 13.6501 52.0374 13.8792 51.314C13.0428 51.3994 9.92386 51.8546 8.88895 52.7368C8.6664 52.9154 8.48299 53.1382 8.35022 53.3913C8.20605 53.7266 8.14494 54.092 8.17209 54.4562C8.19925 54.8205 8.31387 55.1727 8.50617 55.4828L7.59885 56.2511C7.59885 56.2511 7.59885 56.0661 7.59885 55.7958C7.59885 55.5255 7.59885 55.184 7.59885 54.8283C7.59885 54.1027 7.59885 53.4055 7.59885 53.4055V52.253C7.59885 52.253 7.59885 51.8262 7.59885 51.3851C7.59885 50.9441 7.59885 50.5172 7.59885 50.5172C8.01649 49.948 8.49158 49.4235 9.01654 48.9521C9.43477 49.2372 9.92868 49.3896 10.4342 49.3896C10.9398 49.3896 11.4337 49.2372 11.8519 48.9521C12.5079 48.4083 13.0521 47.7414 13.4539 46.9887C13.8421 46.3874 14.197 45.7652 14.5172 45.1248C13.6808 45.1248 10.5193 45.0537 9.34261 45.822C9.08733 45.97 8.86989 46.1757 8.70749 46.4226C8.54509 46.6695 8.44219 46.951 8.40693 47.2448C8.36784 47.6557 8.42613 48.0702 8.57705 48.4542C8.29352 48.6391 7.92491 48.881 7.55631 49.0944V48.3403C7.55631 47.8993 7.68391 47.3017 7.76897 46.7184C7.85403 46.135 7.93909 45.5374 8.02415 45.0964C8.10921 44.6553 8.15175 44.3565 8.15175 44.3565V44.0862C8.15175 43.9297 8.15175 43.7163 8.27934 43.5029C8.37858 43.076 8.46364 42.6492 8.46364 42.6492C8.9908 42.1607 9.57657 41.7401 10.2074 41.3971C10.5742 41.7585 11.0416 41.9997 11.5479 42.0886C12.0543 42.1775 12.5755 42.1101 13.0428 41.8951C13.3823 41.7329 13.6935 41.5167 13.9643 41.2548C14.262 40.9703 14.5597 40.643 14.8716 40.3158C15.5238 39.5902 16.0625 38.893 16.2893 38.5658C15.4804 38.3872 14.6613 38.2589 13.8367 38.1816C12.8882 38.0439 11.9214 38.1118 11.0013 38.3808C10.7459 38.4985 10.5113 38.6571 10.3066 38.8503C9.99857 39.1363 9.8067 39.5265 9.76792 39.9459C9.7213 40.2571 9.7213 40.5737 9.76792 40.8849L8.64794 41.326L9.04489 39.9032C9.14413 39.5617 9.22919 39.2202 9.31426 38.9641L9.45603 38.5373L10.1082 37.5698V37.3564C10.114 37.3044 10.114 37.2519 10.1082 37.1999C10.1082 37.1999 10.1082 37.1999 10.1082 37.1287L10.2358 36.7588L10.5618 35.9478C11.1535 35.5452 11.7913 35.2156 12.4615 34.9661C12.775 35.3749 13.2024 35.6811 13.6896 35.8458C14.1767 36.0104 14.7016 36.0261 15.1977 35.8909C16.5841 35.1551 17.8393 34.1935 18.9121 33.0453C18.1323 32.7323 15.1126 31.7221 13.7942 32.0921C13.4895 32.1469 13.2021 32.2735 12.9556 32.4615C12.7092 32.6494 12.5107 32.8934 12.3765 33.1734C12.2175 33.5503 12.1542 33.961 12.1922 34.3685L11.0155 34.6531C11.0155 34.6531 11.1289 34.3828 11.3274 33.9701C11.5259 33.5575 11.7385 33.0169 12.0079 32.4762L12.7593 31.0534L13.0995 30.3847L14.1769 28.8339C14.8332 28.5458 15.5173 28.3264 16.2184 28.1794C16.4453 28.6489 16.8103 29.0371 17.2642 29.2916C17.718 29.546 18.2388 29.6545 18.7561 29.6022C19.5485 29.4269 20.3027 29.1087 20.9819 28.6631L22.1302 27.9517C22.3891 27.7937 22.6398 27.6228 22.8816 27.4395C22.1727 27.0127 19.3799 25.533 17.9764 25.6468C17.4779 25.6878 17.0114 25.9099 16.6643 26.2713C16.3172 26.6328 16.1133 27.1088 16.0908 27.6103L14.9 27.7099L15.141 27.3257C15.2969 27.0981 15.4812 26.785 15.6939 26.5005C16.0908 25.9171 16.5161 25.3338 16.5161 25.3338L16.8422 24.8785L17.1966 24.4232L17.6787 23.8114L18.2741 23.0573C18.9685 22.8664 19.6815 22.7519 20.4006 22.7159C20.569 23.1958 20.8761 23.6145 21.2826 23.9186C21.6891 24.2227 22.1767 24.3984 22.6831 24.4232C23.5348 24.3644 24.3674 24.1422 25.1357 23.7687C25.9863 23.4273 26.7661 23.0573 27.078 22.8866C26.4258 22.3602 23.8882 20.4821 22.4988 20.3967C22.1994 20.3673 21.8974 20.4086 21.6167 20.5173C21.3361 20.626 21.0847 20.7991 20.8826 21.0227C20.6 21.3198 20.4039 21.6888 20.3156 22.0898L19.1247 22.0045L19.6067 21.4496C19.9044 21.1081 20.3297 20.6813 20.7409 20.2544C20.9394 20.041 21.1378 19.8134 21.3363 19.6142L21.8892 19.0877L22.4279 18.5755C22.4279 18.5755 22.7398 18.2625 23.0659 17.978L23.718 17.4088C24.4286 17.3163 25.1482 17.3163 25.8588 17.4088C25.9442 17.9194 26.1826 18.3917 26.5422 18.7628C26.9019 19.1339 27.3657 19.3863 27.8719 19.4861C28.2376 19.551 28.6119 19.551 28.9777 19.4861C29.3888 19.4861 29.8283 19.3438 30.2678 19.2727C30.7073 19.2016 31.2035 19.0451 31.5862 18.9312L32.451 18.6894C31.9265 18.0633 29.7716 15.7726 28.3539 15.5023C28.0778 15.4467 27.7935 15.4467 27.5175 15.5023C27.2977 15.5323 27.0859 15.6048 26.8937 15.7157C26.7257 15.811 26.5728 15.9309 26.44 16.0714C26.2242 16.2992 26.0513 16.5643 25.9296 16.854L24.7671 16.5552L25.8871 15.673C26.44 15.2177 27.0213 14.8194 27.0213 14.8194L27.9569 14.1506L28.1696 13.9941L28.3539 13.8092H28.4673H28.5524L29.2896 13.3397C30.0035 13.3601 30.7126 13.4651 31.4019 13.6527C31.4085 14.1703 31.5722 14.6737 31.8711 15.0956C32.1699 15.5176 32.5898 15.8381 33.0748 16.0145C33.9057 16.2122 34.7649 16.2604 35.6125 16.1568C36.0803 16.1568 36.5056 16.0714 36.8742 16.0287L37.7249 15.9291C37.2854 15.2177 35.4282 12.5998 34.1381 12.1445C33.8685 12.0135 33.5728 11.9455 33.2733 11.9455C32.9738 11.9455 32.6781 12.0135 32.4085 12.1445C32.053 12.3573 31.7558 12.6556 31.5437 13.0124L30.4379 12.5429L31.1893 12.0591C31.5862 11.8457 32.0824 11.5185 32.607 11.2482C32.9047 11.1059 35.3431 9.82536 37.413 8.71558C37.7161 9.12593 38.148 9.42201 38.6392 9.55621C39.1303 9.6904 39.6522 9.65491 40.1208 9.45543C41.425 8.94323 43.3106 6.41066 43.7926 5.71349C42.9703 5.55698 39.8514 5.04478 38.5471 5.58544C38.0415 5.79289 37.6236 6.17038 37.3649 6.65322C37.1062 7.13605 37.023 7.69415 37.1294 8.23183C36.137 8.63021 35.1872 9.01437 34.8469 9.17087C34.5067 9.32738 32.0116 10.1668 32.0116 10.1668C32.0116 9.73999 32.1675 9.31315 32.2384 8.97168C32.6736 8.97568 33.1044 8.88338 33.5001 8.70135C33.7909 8.56254 34.0496 8.36426 34.2595 8.11925C34.4695 7.87423 34.6261 7.58788 34.7193 7.27856C34.9427 6.34751 35.0003 5.38415 34.8895 4.43298C34.8673 3.61897 34.801 2.80678 34.691 2C34.4925 2.12805 34.1664 2.3557 33.7837 2.64026C33.4009 2.92482 32.9614 3.30897 32.5361 3.69312C31.7482 4.34764 31.114 5.1687 30.6789 6.09764C30.5115 6.60181 30.5264 7.14902 30.7208 7.64332C30.9152 8.13761 31.2768 8.54745 31.7422 8.80095C31.643 9.09973 31.487 9.46966 31.3452 9.83959C31.2188 10.187 31.0671 10.5246 30.8916 10.8498L30.4237 11.1201C30.1402 11.2766 29.7574 11.49 29.403 11.7319L27.9853 12.6709L27.7301 12.8417L27.1772 13.2258L26.3833 13.7949L26.0289 14.0511C26.0289 13.8092 26.0289 13.5673 26.0289 13.3254C26.0289 13.0836 26.0289 12.984 26.0289 12.8417C26.4576 12.7753 26.868 12.6202 27.2339 12.3864C27.4935 12.21 27.7151 11.9832 27.8856 11.7192C28.056 11.4552 28.1719 11.1596 28.2263 10.8498C28.2464 9.05877 27.9389 7.27927 27.319 5.59966C27.1489 5.75617 26.8511 6.01227 26.5109 6.36797C26.1706 6.72367 25.802 7.13628 25.4476 7.59157C24.7552 8.34706 24.2458 9.25268 23.959 10.238C23.959 10.3376 23.959 10.4087 23.959 10.4941C23.9319 10.9722 24.0538 11.447 24.3079 11.8524C24.5619 12.2579 24.9355 12.5738 25.3767 12.7563C25.2404 13.4814 25.0653 14.1985 24.8522 14.9047L24.3276 15.3173C24.0016 15.5592 23.6046 15.9149 23.1935 16.2564L22.0877 17.2239L21.6057 17.6934L20.7409 18.5186L20.1596 19.102L19.9044 19.3723C19.8336 18.9597 19.7768 18.5044 19.7485 18.1629C20.1639 18.0341 20.5462 17.8156 20.8685 17.5227C21.3244 17.0819 21.5892 16.4788 21.6057 15.8438C21.3296 14.0716 20.7339 12.3648 19.8477 10.8071C19.2948 11.533 18.7881 12.2934 18.3308 13.0836C17.7876 13.9459 17.4392 14.9172 17.3101 15.9291C17.3044 16.4579 17.4847 16.9717 17.8192 17.3802C18.1537 17.7888 18.621 18.0659 19.1389 18.1629C19.1369 18.9018 19.0752 19.6393 18.9546 20.3682L18.6002 20.7809L17.8204 21.6914C17.5496 21.9814 17.294 22.2853 17.0549 22.602L16.7146 23.0289C16.7146 23.0289 16.4169 23.4273 16.105 23.8114C15.9612 23.9828 15.8286 24.1634 15.7081 24.3521L15.5238 24.5939L15.2686 24.9639C15.2686 24.722 15.1268 24.4943 15.0701 24.2667C15.0134 24.0391 14.985 23.9252 14.9425 23.783C15.3244 23.5823 15.6657 23.3122 15.9491 22.9862C16.1441 22.7373 16.2873 22.4516 16.3701 22.1461C16.4529 21.8406 16.4736 21.5214 16.4311 21.2077C15.8969 19.4949 15.0562 17.8942 13.9501 16.484C13.4943 17.2892 13.0963 18.1261 12.7593 18.9881C12.3585 19.9116 12.1649 20.9122 12.1922 21.9191C12.1922 22.0045 12.1922 22.0756 12.1922 22.161C12.3118 22.6333 12.5811 23.0538 12.9595 23.3592C13.338 23.6646 13.805 23.8383 14.2904 23.8541C14.3856 24.5853 14.433 25.322 14.4321 26.0594L13.2838 27.8664L12.2064 29.716L12.0221 30.0575C11.9228 30.2567 11.781 30.5128 11.6535 30.7831L11.1573 31.8786C10.9588 31.5087 10.7887 31.1103 10.6469 30.7831C10.9989 30.5343 11.2898 30.2083 11.4975 29.8298C11.6532 29.5535 11.7512 29.2482 11.7853 28.9327C11.8194 28.6171 11.789 28.2978 11.696 27.9944C10.8956 26.4041 9.81494 24.9725 8.50617 23.7687C8.42111 23.9821 8.29352 24.3663 8.13757 24.8216C7.98162 25.2769 7.86821 25.846 7.75479 26.4151C7.49293 27.4046 7.45899 28.441 7.65555 29.4457C7.8167 29.9508 8.14852 30.3835 8.59371 30.6693C9.0389 30.955 9.56953 31.0758 10.094 31.0107C10.3042 31.7167 10.4746 32.434 10.6044 33.1592C10.6044 33.1592 10.5051 33.3583 10.3775 33.6571C10.2499 33.9559 10.0656 34.3543 9.90969 34.7527C9.58362 35.5637 9.27172 36.3889 9.27172 36.3889C9.22658 36.4855 9.18867 36.5854 9.15831 36.6877C9.15831 36.8584 9.01654 37.0861 8.94565 37.3279L8.63376 38.2528L8.49199 38.6654L8.08086 38.082C7.9958 37.9208 7.91074 37.7785 7.82568 37.6552C8.14159 37.3542 8.38414 36.9842 8.53452 36.5739C8.64166 36.274 8.68686 35.9553 8.66736 35.6373C8.64786 35.3194 8.56408 35.0087 8.42111 34.7242C7.38414 33.2612 6.09216 31.9983 4.60751 30.9965C4.35232 31.9213 3.92702 35.4356 4.60751 36.6877L4.72092 36.9011C4.98419 37.3109 5.37088 37.6257 5.82474 37.7997C6.27861 37.9737 6.77595 37.9979 7.24442 37.8686C7.56095 38.5336 7.83557 39.2179 8.06668 39.9174C8.06668 39.9174 7.9958 40.1877 7.88238 40.5577C7.76897 40.9276 7.65555 41.4683 7.52796 41.9805C7.40037 42.4927 7.30113 43.0191 7.20189 43.4033L7.08847 44.1573C7.08847 44.1573 6.97506 44.7549 6.87582 45.3383C6.79423 45.7332 6.73272 46.1321 6.69152 46.5334C6.3938 46.2346 6.08191 45.9074 5.85508 45.637C6.121 45.2945 6.30528 44.8954 6.3938 44.4704C6.49688 43.8438 6.35465 43.2014 5.99685 42.6776C4.73301 41.4041 3.24854 40.3723 1.61617 39.6329C1.59577 40.5494 1.62891 41.4663 1.71541 42.3788C1.79273 43.4001 2.0825 44.3937 2.56603 45.2956C2.87344 45.7376 3.32889 46.054 3.84935 46.1872C4.36981 46.3204 4.92063 46.2615 5.40142 46.0212C5.8375 46.6206 6.22619 47.2533 6.56393 47.9135C6.56393 47.9135 6.56393 48.1269 6.56393 48.4542C6.56393 48.7814 6.56393 49.2225 6.47887 49.6493C6.3938 50.0762 6.47887 50.5172 6.37963 50.8445C6.28039 51.1717 6.37963 51.3994 6.37963 51.3994V53.377V53.8039C6.18115 53.6758 5.98267 53.5193 5.79837 53.377L5.42977 53.0498C5.59686 52.6541 5.67898 52.2274 5.67078 51.7977C5.68287 51.1652 5.44895 50.5528 5.01864 50.0904C3.56146 49.0097 1.91762 48.2089 0.170123 47.7285C0.289355 48.6198 0.459762 49.5034 0.680494 50.3749C0.894703 51.4027 1.32485 52.3728 1.94224 53.2205L2.12654 53.3913C2.49971 53.7055 2.96527 53.8882 3.45183 53.9113C3.93839 53.9344 4.41908 53.7967 4.82016 53.5193C5.33328 54.0532 5.80709 54.6239 6.23786 55.2267C6.23786 55.2267 6.23786 55.497 6.23786 55.8954C6.23786 56.2938 6.23786 56.8344 6.3371 57.3182C6.43633 57.8019 6.3371 58.3995 6.47887 58.741V59.4097L6.62064 60.6048C6.7057 61.2024 6.81911 61.8 6.81911 61.8C6.43634 61.6008 6.05356 61.3874 5.75584 61.2024C5.9429 60.7063 5.96819 60.1635 5.82806 59.6521C5.68792 59.1407 5.38961 58.6871 4.97611 58.3568C3.42134 57.5551 1.736 57.0395 0 56.8344C0.248683 57.7147 0.561417 58.5754 0.935679 59.4097C1.31101 60.3611 1.88645 61.2201 2.62274 61.928C3.04216 62.2329 3.55389 62.3825 4.07084 62.3514C4.5878 62.3203 5.07803 62.1103 5.45813 61.7573C6.05049 62.1831 6.60542 62.6591 7.11683 63.1801L7.51378 64.8732C7.5884 65.2667 7.68304 65.6561 7.79732 66.0399C7.88238 66.3529 7.95327 66.5663 7.95327 66.5663L8.20845 67.5054C8.20845 67.7472 8.35022 67.9891 8.40693 68.1599L8.50617 68.4444L8.64794 68.8712L7.96745 68.6294L7.49961 68.4444C7.58952 68.0175 7.58952 67.5765 7.49961 67.1497C7.41147 66.8481 7.2646 66.567 7.06748 66.3228C6.87037 66.0786 6.62693 65.876 6.35127 65.7269C4.66048 65.1455 2.87777 64.8803 1.09163 64.9443C1.46403 65.8129 1.90491 66.6503 2.41008 67.4485C2.91773 68.3398 3.62067 69.1036 4.46574 69.6822C4.53687 69.7286 4.61296 69.7668 4.69257 69.7961C5.14377 69.973 5.63976 69.9994 6.10706 69.8712C6.57435 69.7431 6.98808 69.4673 7.28695 69.0847C7.93232 69.435 8.55285 69.8296 9.14413 70.2656L9.92386 72.2148C10.1223 72.7128 10.3633 73.1823 10.5193 73.5665L10.7887 74.164L10.9446 74.5055L11.3132 75.2454L11.8661 76.3124C11.4653 76.2583 11.0678 76.1823 10.6752 76.0848C10.677 75.6512 10.58 75.223 10.3917 74.8327C10.2621 74.535 10.0674 74.2704 9.82199 74.0586C9.57655 73.8467 9.28672 73.6931 8.97401 73.6091C8.04855 73.3711 7.08699 73.3084 6.13862 73.4242C5.30671 73.4771 4.47842 73.5769 3.65765 73.723C3.78525 73.9079 4.01208 74.2494 4.29562 74.6336C4.57915 75.0177 4.96193 75.4588 5.34471 75.8856C5.99389 76.6794 6.81275 77.3165 7.74061 77.7495C8.2411 77.9137 8.78309 77.8969 9.27252 77.702C9.76195 77.507 10.1679 77.1463 10.4201 76.6824L11.4692 77.0808C11.8378 77.2373 12.2064 77.3938 12.4615 77.536L12.7309 78.0056C12.901 78.2901 13.0995 78.6743 13.3405 79.0442L14.2762 80.467L14.4463 80.7231L14.8291 81.278L15.3962 82.089L16.3744 81.3776L15.7789 80.4812Z" fill="url(#paint5_linear_759_14938)"/>
<path d="M100.415 65.0153L100.812 63.3222C101.333 62.812 101.888 62.3367 102.471 61.8994C102.849 62.2546 103.339 62.4671 103.856 62.5008C104.373 62.5346 104.885 62.3874 105.306 62.0844C106.062 61.3871 106.649 60.5257 107.022 59.566C107.392 58.7301 107.704 57.8696 107.957 56.9908C106.182 57.1869 104.457 57.7077 102.868 58.5274C102.449 58.8534 102.147 59.3069 102.006 59.8199C101.865 60.3329 101.894 60.8778 102.088 61.373L101.011 61.9706C101.011 61.9706 101.124 61.373 101.209 60.7754C101.294 60.1779 101.365 59.5803 101.365 59.5803C101.365 59.5803 101.365 59.3242 101.45 58.9258C101.518 58.4541 101.561 57.9792 101.578 57.503C101.578 56.9623 101.677 56.4359 101.705 56.0802C101.734 55.7245 101.705 55.4115 101.705 55.4115C102.129 54.8035 102.604 54.2324 103.123 53.7041C103.526 53.977 104.006 54.112 104.491 54.0889C104.977 54.0659 105.441 53.886 105.817 53.5761L105.987 53.4196C106.6 52.599 107.034 51.6588 107.263 50.6594C107.485 49.7738 107.656 48.8759 107.773 47.9703C106.047 48.4458 104.422 49.2368 102.981 50.3037C102.555 50.7684 102.322 51.3792 102.329 52.011C102.352 52.4498 102.473 52.8778 102.684 53.2631L102.315 53.5761L101.72 54.0172V53.5761V51.6126C101.72 51.6126 101.72 51.385 101.72 51.0578C101.72 50.7305 101.72 50.3037 101.635 49.8626C101.549 49.4215 101.635 48.9947 101.535 48.6675C101.436 48.3402 101.535 48.1268 101.535 48.1268C101.861 47.4252 102.24 46.7498 102.669 46.1064C103.147 46.3542 103.699 46.4187 104.221 46.2878C104.743 46.1568 105.199 45.8394 105.505 45.395C105.994 44.4956 106.285 43.5007 106.355 42.4783C106.452 41.5664 106.49 40.6491 106.469 39.7323C104.83 40.4743 103.341 41.511 102.074 42.7913C101.72 43.3165 101.583 43.9593 101.691 44.584C101.773 45.0129 101.953 45.4169 102.216 45.765C101.953 46.0736 101.673 46.368 101.379 46.6471C101.379 46.6471 101.379 46.0495 101.195 45.452L100.997 44.271C100.997 44.271 100.997 44.0149 100.883 43.6165C100.77 43.2182 100.67 42.706 100.543 42.1938C100.415 41.6815 100.316 41.1551 100.188 40.771C100.061 40.3868 100.018 40.1165 100.018 40.1165C100.249 39.4169 100.524 38.7327 100.841 38.0677C101.308 38.2006 101.805 38.1797 102.259 38.0082C102.713 37.8366 103.1 37.5233 103.364 37.1144L103.492 36.8867C104.172 35.592 103.747 32.0635 103.492 31.1956C102 32.1873 100.702 33.4461 99.6639 34.9091C99.5295 35.1916 99.4527 35.4983 99.4381 35.811C99.4234 36.1238 99.4713 36.4363 99.5789 36.7302C99.7251 37.1392 99.9628 37.5091 100.274 37.8116L100.018 38.2384L99.6214 38.8217L99.4796 38.4091C99.4796 38.4091 99.3095 37.9396 99.1677 37.4843C99.0827 37.2424 99.0118 37.0148 98.9409 36.8298L98.8417 36.5453C98.8417 36.5453 98.5298 35.7343 98.2037 34.9233C98.0478 34.5107 97.8635 34.1265 97.7359 33.8277C97.6083 33.5289 97.509 33.3298 97.509 33.3298C97.6436 32.5996 97.8187 31.8776 98.0336 31.1671C98.5566 31.2358 99.0871 31.1182 99.5326 30.8348C99.9782 30.5515 100.311 30.1203 100.472 29.6163C100.669 28.6069 100.635 27.5658 100.373 26.5715C100.259 26.0166 100.118 25.4617 99.99 24.9922C99.8624 24.5227 99.7206 24.1527 99.6356 23.9393C98.3036 25.1485 97.2075 26.596 96.4032 28.2077C96.3084 28.5078 96.2758 28.8242 96.3075 29.1374C96.3392 29.4507 96.4345 29.754 96.5875 30.0289C96.8 30.4079 97.0899 30.7376 97.4382 30.9964C97.3106 31.3094 97.1263 31.7078 96.9278 32.0919L96.4032 30.9252C96.2615 30.6691 96.1339 30.3988 96.0346 30.1996L95.8503 29.8724L94.7871 28.0085C94.1633 27.1122 93.5678 26.1873 93.5678 26.1873C93.5528 25.4495 93.6002 24.7118 93.7096 23.982C94.1937 23.9617 94.6585 23.7863 95.0361 23.4816C95.4136 23.177 95.6841 22.759 95.8078 22.2889C95.8078 22.2889 95.8078 22.1324 95.8078 22.047C95.856 21.0316 95.6868 20.0176 95.3116 19.0734C94.9755 18.2178 94.5824 17.386 94.1349 16.5835C93.0292 17.9909 92.1841 19.586 91.6398 21.2929C91.5975 21.6109 91.621 21.9342 91.7088 22.2427C91.7966 22.5511 91.9469 22.8381 92.1502 23.0856C92.4265 23.4189 92.7694 23.6903 93.1567 23.8824L93.0291 24.3662C93.0291 24.5938 92.9015 24.8357 92.8165 25.0633L92.5329 24.7645C92.5329 24.7645 92.5329 24.6649 92.3628 24.5084L91.9659 23.9678L91.3562 23.1995L91.016 22.7726C90.8175 22.5023 90.5482 22.1751 90.2646 21.8478L89.4707 20.9372L89.1163 20.4962C89.0031 19.7663 88.9415 19.0294 88.932 18.2908C89.4483 18.1845 89.9111 17.8999 90.2401 17.4866C90.569 17.0733 90.7432 16.5574 90.7325 16.0286C90.5879 15.0204 90.2407 14.0523 89.7117 13.183C89.2544 12.3929 88.7477 11.6325 88.1948 10.9065C87.3189 12.4601 86.7373 14.1629 86.4794 15.929C86.4777 16.2501 86.5409 16.5682 86.6652 16.8641C86.7895 17.16 86.9722 17.4275 87.2024 17.6506C87.5284 17.9383 87.9095 18.1561 88.3224 18.2908C88.3224 18.6323 88.2373 19.0876 88.1664 19.5002L87.8971 19.1872C87.7553 19.0307 87.5426 18.803 87.33 18.6039L86.4794 17.7786L85.9974 17.3091L84.8916 16.3416C84.4804 15.9859 84.0835 15.6302 83.7574 15.3883L83.247 14.9757C83.0292 14.265 82.8494 13.5431 82.7083 12.8131C83.1677 12.6468 83.5605 12.3344 83.8266 11.9235C84.0928 11.5125 84.2178 11.0255 84.1827 10.5366C84.1889 10.4514 84.1889 10.3658 84.1827 10.2805C83.9126 9.30334 83.4283 8.39915 82.765 7.63412C82.4106 7.17883 82.0278 6.75199 81.7017 6.39629C81.3757 6.0406 81.0638 5.78449 80.8937 5.62799C80.2688 7.31157 79.9565 9.09579 79.9722 10.8923C80.0268 11.2001 80.1429 11.4936 80.3134 11.7552C80.4839 12.0169 80.7054 12.2412 80.9645 12.4147C81.3271 12.6579 81.7385 12.8182 82.1696 12.8842C82.1696 13.0265 82.1696 13.1972 82.1696 13.368C82.1696 13.5387 82.1696 13.8517 82.1696 14.0936L81.8152 13.8375L81.0212 13.2684L80.4825 12.87L80.2132 12.6993L78.7955 11.7602C78.441 11.5183 78.0583 11.3049 77.7747 11.1484L77.3069 10.8781C77.1313 10.5529 76.9797 10.2153 76.8532 9.86791L76.4563 8.81504C76.9246 8.56845 77.2894 8.16159 77.4844 7.66825C77.6795 7.1749 77.692 6.62773 77.5195 6.12596C77.1041 5.18899 76.4724 4.36476 75.6765 3.72144C75.2796 3.34855 74.8631 2.99709 74.429 2.66858C74.0462 2.38402 73.7201 2.15637 73.5216 2.02832C73.5216 2.44093 73.2948 3.45111 73.2239 4.50398C73.1119 5.45512 73.1695 6.41869 73.3941 7.34956C73.4823 7.66128 73.637 7.95 73.8476 8.19568C74.0581 8.44137 74.3194 8.63815 74.6133 8.77236C75.0021 8.96136 75.4288 9.05869 75.8608 9.05692C75.9579 9.45088 76.0337 9.84985 76.0877 10.2521C76.0877 10.2521 73.8477 9.49798 73.2523 9.25611C72.9262 9.0996 71.9622 8.70122 70.984 8.30284C71.0884 7.76338 71.0045 7.20428 70.7463 6.71967C70.488 6.23507 70.0713 5.85456 69.5663 5.64221C67.8278 5.31973 66.0416 5.36333 64.3208 5.77026C65.2815 7.25192 66.5246 8.52843 67.9785 9.52644C68.4495 9.72441 68.9729 9.75915 69.4659 9.62516C69.9589 9.49117 70.3933 9.19609 70.7004 8.78658L75.4922 11.3334C76.0168 11.6037 76.5272 11.9167 76.9099 12.1444L77.5479 12.5143C77.1509 12.685 76.754 12.8558 76.4421 12.9696C76.2224 12.6188 75.9268 12.3222 75.5773 12.1017C75.3074 11.9717 75.0119 11.9042 74.7125 11.9042C74.4131 11.9042 74.1176 11.9717 73.8477 12.1017C72.5576 12.5712 70.7004 15.1749 70.2468 15.8721L71.0974 15.9859C71.466 15.9859 71.9055 16.0855 72.3591 16.114C73.2059 16.222 74.0651 16.1786 74.8968 15.9859C75.3916 15.7961 75.8162 15.4581 76.113 15.0177C76.4097 14.5774 76.5642 14.056 76.5555 13.5245C77.2449 13.3369 77.9539 13.2319 78.6679 13.2115L79.4051 13.681C79.5395 13.7609 79.6675 13.8513 79.7879 13.9513L80.0147 14.1078L80.9362 14.7623C80.9362 14.7623 81.5174 15.1749 82.0845 15.6302L83.2045 16.5123L82.0278 16.8111C81.9061 16.5215 81.7332 16.2564 81.5174 16.0286C81.3852 15.8835 81.2324 15.7588 81.0638 15.6587C80.8707 15.5524 80.6588 15.4847 80.44 15.4595C80.164 15.4035 79.8796 15.4035 79.6036 15.4595C78.1859 15.7298 76.031 18.0205 75.4781 18.6608L76.5555 19.0734C76.9383 19.1872 77.3778 19.3152 77.8598 19.4148C78.3418 19.5144 78.7388 19.5856 79.1499 19.6283C79.5205 19.6925 79.8993 19.6925 80.2699 19.6283C80.7738 19.5099 81.2303 19.2414 81.5795 18.858C81.9286 18.4746 82.1541 17.9942 82.2263 17.4798C82.9369 17.3874 83.6564 17.3874 84.367 17.4798L85.0191 18.049L85.6429 18.6465L86.1817 19.1587L86.7346 19.6994L87.3442 20.3254C87.7411 20.7665 88.1664 21.1933 88.4641 21.5348L88.9462 22.0897L87.7553 22.1751C87.6647 21.7707 87.469 21.3976 87.1882 21.0937C86.9841 20.8743 86.7316 20.706 86.4509 20.6022C86.1702 20.4984 85.8692 20.4621 85.5721 20.4962C84.1544 20.4962 81.6309 22.4454 80.9787 22.9718C81.2906 23.1426 82.0703 23.5125 82.921 23.854C83.6893 24.2275 84.5219 24.4496 85.3736 24.5084C85.8879 24.494 86.3857 24.3229 86.8009 24.018C87.2161 23.7131 87.5292 23.2887 87.6986 22.8011C88.4131 22.836 89.1216 22.9505 89.811 23.1426L90.8884 24.5654L91.2428 25.0206L91.5689 25.4902L92.3912 26.6569C92.6038 26.9414 92.7739 27.2544 92.9299 27.4821L93.1709 27.852C92.7456 27.852 92.3061 27.852 91.98 27.7666C91.9624 27.4001 91.8515 27.0442 91.6579 26.7328C91.4644 26.4215 91.1945 26.1651 90.8742 25.9881C90.6257 25.8615 90.357 25.7797 90.0803 25.7463C88.6626 25.6182 85.8981 27.0979 85.1751 27.5248C85.4169 27.708 85.6676 27.879 85.9265 28.037L87.0748 28.7626C87.7534 29.1996 88.5014 29.5171 89.2864 29.7016C89.806 29.757 90.3299 29.65 90.7866 29.3954C91.2433 29.1407 91.6106 28.7508 91.8383 28.2788C92.5428 28.4128 93.2283 28.6325 93.8797 28.9333L94.7445 30.4557C94.7445 30.4557 94.9005 30.7118 95.099 31.1102L95.8362 32.533C96.1055 33.0594 96.3323 33.6143 96.5308 34.0269L96.8286 34.7099L95.6519 34.4253C95.691 34.0131 95.6277 33.5976 95.4676 33.2159C95.3333 32.936 95.1348 32.692 94.8884 32.504C94.6419 32.316 94.3546 32.1894 94.0499 32.1346C92.7314 31.7505 89.7117 32.7606 88.932 33.0737C89.9983 34.2229 91.2491 35.1848 92.6322 35.9192C93.1287 36.063 93.6568 36.053 94.1476 35.8906C94.6383 35.7281 95.0687 35.4207 95.3825 35.0087C96.0527 35.2582 96.6905 35.5878 97.2822 35.9904L97.5941 36.8014C97.6792 37.0006 97.7359 37.214 97.7926 37.3705C97.8493 37.527 97.8776 37.6266 97.8776 37.6266L98.2462 38.7079L98.388 39.1348C98.4731 39.3909 98.5581 39.7323 98.6574 40.0738L99.0543 41.4966L97.9344 41.0413C97.9811 40.7348 97.9811 40.423 97.9344 40.1165C97.8956 39.6971 97.7037 39.3069 97.3956 39.0209C97.1974 38.8198 96.9612 38.6601 96.701 38.5514C95.7836 38.2674 94.8134 38.1993 93.8656 38.3522C93.0421 38.4248 92.2232 38.5435 91.413 38.7079C91.654 39.0067 92.1927 39.7466 92.8307 40.4722C93.1425 40.7852 93.4403 41.1267 93.738 41.4112C94.0065 41.6693 94.3124 41.8852 94.6453 42.0515C95.1121 42.2684 95.6339 42.337 96.1407 42.248C96.6474 42.159 97.115 41.9167 97.4807 41.5535C98.1044 41.9065 98.6849 42.3315 99.2103 42.8198L99.4088 43.6735C99.4088 43.8869 99.4938 44.1003 99.5222 44.2568V44.5271C99.5222 44.5271 99.5222 44.8259 99.6498 45.267C99.7774 45.708 99.8482 46.2914 99.9049 46.889C99.9617 47.4865 100.061 48.0699 100.103 48.511C100.146 48.952 100.103 49.265 100.103 49.265L99.0969 48.6248C99.2478 48.2408 99.3061 47.8264 99.267 47.4154C99.2307 47.122 99.1273 46.8409 98.965 46.5941C98.8027 46.3473 98.5859 46.1415 98.3313 45.9926C96.6824 45.3856 94.9211 45.1476 93.1709 45.2954C93.4881 45.93 93.8383 46.5474 94.22 47.1451C94.6129 47.9118 95.1581 48.5897 95.822 49.137C96.2416 49.4184 96.735 49.5686 97.2397 49.5686C97.7444 49.5686 98.2377 49.4184 98.6574 49.137C99.2072 49.5986 99.7106 50.1132 100.16 50.6736C100.16 50.6736 100.16 51.1147 100.16 51.5415V52.4094V53.5619C100.16 53.5619 100.16 54.2733 100.16 54.9847C100.16 55.3404 100.16 55.6961 100.16 55.9664C100.16 56.2367 100.16 56.4217 100.16 56.4217L99.2386 55.6534C99.4332 55.3445 99.5503 54.9929 99.5799 54.6286C99.6096 54.2644 99.5508 53.8984 99.4088 53.5619C99.2682 53.3099 99.0861 53.0838 98.87 52.8932C97.8351 51.9683 94.7162 51.4704 93.8797 51.4704C94.1113 52.1929 94.3859 52.9008 94.702 53.5903C94.9663 54.3605 95.3862 55.0677 95.9354 55.6676C96.3126 56.0133 96.7845 56.2374 97.2899 56.3109C97.7954 56.3845 98.3113 56.3041 98.7708 56.0802C99.2443 56.6148 99.6623 57.1964 100.018 57.816C100.018 57.816 100.018 57.9298 100.018 58.0863C100.018 58.2429 100.018 58.4705 100.018 58.6839L99.9049 59.5518C99.9049 59.5518 99.9049 59.8506 99.8057 60.2917C99.7065 60.7327 99.6639 61.3303 99.5505 61.9137C99.4371 62.497 99.352 63.0946 99.2528 63.5214C99.1536 63.9483 99.0827 64.2613 99.0827 64.2613C98.7991 63.934 98.5156 63.6068 98.3029 63.3365C98.6537 62.9685 98.8576 62.4841 98.8759 61.9753C98.8942 61.4664 98.7256 60.9686 98.4022 60.5762C97.509 59.4807 94.5035 58.5274 93.6954 58.314C93.6954 58.6697 93.9223 59.5091 94.1349 60.4055C94.2926 61.2458 94.6 62.0507 95.0423 62.7816C95.3596 63.1886 95.7916 63.4904 96.2821 63.6477C96.7726 63.805 97.2989 63.8106 97.7926 63.6637C98.1883 64.2658 98.5163 64.9099 98.7708 65.5845L98.2888 67.2491C98.2888 67.2491 98.2888 67.5337 98.1328 67.804C97.9769 68.0743 97.9485 68.3447 97.9485 68.3447L97.4949 69.7675C97.3977 70.0815 97.2842 70.3902 97.1546 70.6923C97.0554 70.9484 96.9845 71.1049 96.9845 71.1049C96.7577 70.7492 96.5308 70.3793 96.3607 70.0805C96.6463 69.8557 96.8694 69.5609 97.0084 69.2245C97.1475 68.8881 97.1978 68.5214 97.1546 68.1597C97.1088 67.8836 97.0127 67.6183 96.8711 67.3772C96.1481 66.1678 93.3268 64.7592 92.618 64.432C92.618 64.617 92.618 64.9442 92.618 65.3426C92.618 65.741 92.618 66.1963 92.7172 66.6942C92.8792 67.462 93.1666 68.1975 93.5678 68.8711C93.8225 69.3202 94.2066 69.6815 94.6696 69.9075C95.1327 70.1335 95.653 70.2136 96.1622 70.1374C96.4649 70.7926 96.6931 71.4798 96.8427 72.1862L96.1197 73.7797L96.0346 73.9647C96.0346 74.0785 95.907 74.2493 95.7936 74.4485L95.0564 75.8713C94.7871 76.3977 94.461 76.9099 94.2483 77.294L93.8797 77.9485C93.7096 77.5501 93.5395 77.1518 93.4119 76.8245C93.7753 76.6171 94.0784 76.3179 94.2909 75.9566C94.4172 75.6874 94.4827 75.3934 94.4827 75.0958C94.4827 74.7982 94.4172 74.5043 94.2909 74.235C93.823 72.9403 91.2145 71.0764 90.5198 70.6211C90.5198 70.7919 90.5198 71.0907 90.4206 71.4748C90.3213 71.859 90.3071 72.2858 90.2788 72.7411C90.1755 73.5918 90.2235 74.4541 90.4206 75.2879C90.5946 75.7758 90.9135 76.1983 91.3344 76.4985C91.7552 76.7987 92.2576 76.9622 92.7739 76.9668C92.9599 77.6637 93.0645 78.3799 93.0858 79.101C93.0858 79.101 92.859 79.4709 92.618 79.8266C92.377 80.1823 92.3912 80.1965 92.2919 80.3246L92.1218 80.5522L91.4555 81.4771L92.4337 82.1885L93.0008 81.3917L93.3836 80.8368L93.5537 80.5807L94.4894 79.1579C94.7304 78.8022 94.9288 78.4038 95.099 78.1335C95.2691 77.8632 95.3683 77.6497 95.3683 77.6497C95.6956 77.4845 96.0316 77.3373 96.3749 77.2087L97.424 76.7961C97.6696 77.2666 98.0742 77.6339 98.5652 77.8321C99.0563 78.0302 99.6016 78.0463 100.103 77.8774C101.049 77.4417 101.884 76.7944 102.542 75.9851C102.925 75.5582 103.293 75.1314 103.591 74.733C103.889 74.3346 104.101 74.0216 104.229 73.8224C103.818 73.7513 102.811 73.609 101.762 73.5236C100.814 73.4133 99.8546 73.4711 98.9267 73.6944C98.6185 73.7879 98.3332 73.9451 98.0891 74.1558C97.8449 74.3666 97.6474 74.6262 97.509 74.918C97.3279 75.3102 97.2359 75.7378 97.2397 76.17C96.8994 76.2554 96.4599 76.3408 96.0488 76.4119C96.0488 76.4119 96.3182 75.8713 96.6017 75.3448L96.9703 74.605C97.0158 74.4883 97.0678 74.3742 97.1263 74.2635C97.1263 74.2635 97.2397 74.0216 97.3956 73.6517C97.5516 73.2818 97.7926 72.798 97.9911 72.3L98.785 70.3081C99.3791 69.8733 100.005 69.4833 100.656 69.1414C100.955 69.5241 101.369 69.7999 101.836 69.928C102.304 70.0561 102.8 70.0298 103.251 69.8528L103.478 69.7532C104.324 69.1718 105.031 68.4088 105.547 67.5195C106.034 66.7477 106.47 65.9444 106.852 65.1149C105.067 65.0391 103.284 65.2948 101.592 65.869C101.032 66.1698 100.614 66.6816 100.429 67.2918C100.354 67.7201 100.354 68.1583 100.429 68.5866L99.9617 68.7715L99.2386 69.0134L99.3804 68.5866L99.4796 68.302C99.4796 68.1313 99.6072 67.8894 99.6781 67.6475C99.8057 67.178 99.9475 66.7085 99.9475 66.7085L100.089 66.182C100.218 65.7992 100.327 65.4097 100.415 65.0153Z" fill="url(#paint6_linear_759_14938)"/>
<path fill-rule="evenodd" clip-rule="evenodd" d="M39.6988 99.9034C39.6967 99.801 39.6956 99.6983 39.6956 99.5955C39.6956 99.2739 39.7062 98.9548 39.7271 98.6386L39.5538 98.5791L38.7174 98.3941C38.604 98.3941 38.4543 98.3213 38.3046 98.2484C38.2671 98.2302 38.2297 98.212 38.1928 98.1949L37.3848 97.8819C37.0061 97.2626 36.7061 96.5982 36.4916 95.9042C36.9051 95.5947 37.2148 95.1662 37.3794 94.6756C37.544 94.185 37.5558 93.6557 37.4131 93.1582C37.077 92.3645 36.5962 91.6407 35.9954 91.0241C35.6977 90.6684 35.4 90.3411 35.1448 90.0708L34.5635 89.4305C34.2516 90.2131 33.2451 93.2578 33.6137 94.581C33.671 94.8839 33.7966 95.1696 33.9809 95.4162C34.1652 95.6628 34.4033 95.8638 34.677 96.0038C35.0572 96.1645 35.4713 96.2281 35.882 96.1888C35.967 96.5159 36.0662 96.9426 36.1655 97.3694L36.1655 97.3697L35.485 97.0567L34.0248 96.3168L32.6071 95.5628C32.196 95.3636 31.9408 95.2071 31.9408 95.2071L30.4381 94.3392C30.1352 93.6804 29.9115 92.9879 29.7717 92.2761C30.2395 92.0485 30.6264 91.6821 30.8799 91.2266C31.1335 90.7711 31.2415 90.2484 31.1894 89.7293C31.0071 88.9365 30.6906 88.1809 30.2538 87.4955L29.5449 86.3431C29.4841 86.2516 29.4274 86.1652 29.3748 86.085C29.231 85.8659 29.1176 85.6931 29.0345 85.589C28.595 86.3004 27.1206 89.1033 27.2482 90.5118C27.2865 91.0194 27.5103 91.4948 27.8766 91.8468C28.243 92.1987 28.7261 92.4023 29.233 92.4184C29.233 92.7456 29.233 93.1867 29.3181 93.6135L28.9495 93.3717C28.8607 93.3104 28.759 93.247 28.651 93.1798C28.483 93.0751 28.2998 92.9609 28.1272 92.831L26.9363 91.9916L26.4827 91.6359L26.029 91.2802L24.6113 90.1988C24.4258 89.5009 24.3117 88.7858 24.2711 88.0646C24.76 87.9002 25.1874 87.5902 25.4964 87.1759C25.8054 86.7616 25.9813 86.2626 26.0007 85.7455C25.9421 84.8907 25.7207 84.0552 25.3485 83.2841C25.0083 82.4162 24.6397 81.6478 24.4837 81.3348C23.945 81.9751 22.0737 84.5219 21.9886 85.9305C21.9656 86.2411 22.0166 86.5528 22.1374 86.8398C22.2582 87.1268 22.4453 87.3808 22.6833 87.5809C22.9897 87.8575 23.36 88.0531 23.7607 88.15V88.15C23.7607 88.4915 23.7607 88.9183 23.6756 89.3309L23.1086 88.8472C22.8956 88.6602 22.6549 88.4286 22.3969 88.1804C22.2426 88.0319 22.0821 87.8776 21.9177 87.7232L21.2656 87.1114L20.741 86.5565L20.2306 86.0158C20.2306 86.0158 19.9329 85.7028 19.6494 85.3756L19.0823 84.7211C18.9902 84.0079 18.9902 83.2858 19.0823 82.5727C19.5909 82.4886 20.0623 82.252 20.4343 81.8939C20.8063 81.5358 21.0615 81.073 21.1663 80.5665C21.2167 80.1936 21.2167 79.8155 21.1663 79.4425C21.1663 79.1518 21.096 78.847 21.0246 78.538C20.9947 78.4084 20.9646 78.2781 20.9395 78.1478C20.8544 77.7067 20.7268 77.2087 20.6134 76.8388C20.5514 76.6366 20.5021 76.4429 20.4609 76.2809C20.4267 76.1466 20.3981 76.0341 20.3724 75.9567C19.7345 76.4973 17.452 78.8023 17.1684 80.0828C17.1202 80.3605 17.1202 80.6445 17.1684 80.9222C17.2069 81.1406 17.2786 81.3518 17.3811 81.5483C17.4764 81.7206 17.6011 81.8747 17.7497 82.0035C17.9754 82.215 18.234 82.388 18.5152 82.5158C18.5152 82.7437 18.4258 83.0199 18.3333 83.3059C18.2929 83.4306 18.2519 83.5572 18.2175 83.6824L17.3385 82.5584C16.8849 82.0035 16.4879 81.4202 16.4879 81.4202L15.5097 82.1316L15.7649 82.4873H15.0561H14.5599C14.5031 82.0546 14.3478 81.6408 14.1062 81.2779C13.9271 81.0118 13.6969 80.7842 13.4291 80.6083C13.1614 80.4324 12.8614 80.3118 12.5467 80.2535C10.7575 80.2322 8.97948 80.5409 7.30127 81.1641C7.3159 81.1801 7.33154 81.1973 7.34813 81.2155C7.50839 81.3913 7.75851 81.6657 8.06682 81.9751C8.40707 82.3166 8.84656 82.6865 9.28604 83.0564C10.0483 83.722 10.9493 84.2082 11.923 84.4792H12.1781C12.6542 84.5144 13.1289 84.3952 13.5322 84.139C13.9355 83.8828 14.2461 83.5033 14.4181 83.0564C15.1455 83.198 15.8648 83.3785 16.573 83.5971L16.9841 84.1235C17.1457 84.3428 17.3581 84.5941 17.5831 84.8602C17.6938 84.9911 17.8076 85.1257 17.9198 85.2617L18.8838 86.3715L19.3517 86.8553L20.1739 87.7232C20.3569 87.9282 20.5509 88.1229 20.7552 88.3065L21.0246 88.5626C20.6215 88.6383 20.2144 88.6906 19.8053 88.7191C19.6829 88.3027 19.4699 87.9188 19.1816 87.5951C18.9643 87.3693 18.7046 87.1888 18.4175 87.0643C18.1303 86.9397 17.8215 86.8735 17.5087 86.8695C15.7403 87.1379 14.0351 87.726 12.4759 88.6053C13.1949 89.192 13.9528 89.7291 14.7442 90.2131C15.6071 90.7533 16.5728 91.1071 17.5796 91.2517C18.1245 91.2584 18.6536 91.068 19.0702 90.7153C19.4867 90.3626 19.7628 89.8712 19.8479 89.3309C20.5841 89.3336 21.3189 89.3954 22.0453 89.5159L22.4423 89.8858L23.3496 90.6684C23.6756 90.9529 24.0017 91.2375 24.2711 91.4367L24.6964 91.7781L25.4761 92.3757C25.647 92.5243 25.8269 92.6621 26.0148 92.7883L26.2559 92.9591L26.6245 93.2294L25.9298 93.4286L25.4478 93.5566C25.2439 93.1718 24.9753 92.8253 24.6539 92.5322C24.4048 92.339 24.1196 92.1978 23.8152 92.1172C23.5108 92.0366 23.1934 92.018 22.8817 92.0627C21.169 92.5709 19.564 93.3908 18.1466 94.4814C18.941 94.9312 19.7652 95.3257 20.6134 95.6624C21.549 96.0817 22.5662 96.2859 23.5906 96.2599H23.8316C24.2978 96.1365 24.7126 95.8672 25.016 95.4911C25.3194 95.115 25.4954 94.6517 25.5187 94.1684C26.2472 94.0728 26.9813 94.0253 27.7161 94.0261L29.5166 95.1928L31.3596 96.2599L31.6856 96.4449L32.4228 96.829L33.4861 97.3697C33.131 97.5586 32.7666 97.7296 32.3945 97.8819C32.1399 97.5293 31.8107 97.2378 31.4304 97.0282C31.1576 96.8723 30.8558 96.7742 30.5437 96.7399C30.2316 96.7057 29.9158 96.736 29.6158 96.829C28.0171 97.6417 26.5766 98.7356 25.3627 100.059L26.4118 100.414C26.8796 100.557 27.4325 100.699 27.9996 100.813C28.9845 101.083 30.0189 101.117 31.0193 100.912C31.5283 100.761 31.9673 100.434 32.2581 99.9884C32.5489 99.5428 32.6726 99.0081 32.6071 98.4795C33.3153 98.2685 34.0347 98.0975 34.762 97.9673L35.2582 98.1949C35.3216 98.2236 35.3906 98.2557 35.4642 98.29C35.7199 98.4092 36.0306 98.554 36.3498 98.6645L37.966 99.3047L38.2495 99.4185L38.8875 99.632L39.6988 99.9034ZM69.0277 99.7031C68.921 99.7399 68.5603 99.8428 68.0443 99.9837C68.0477 99.8547 68.0495 99.7253 68.0495 99.5955C68.0495 99.2833 68.0394 98.9734 68.0197 98.6662L68.8009 98.4083L69.0561 98.323L69.6231 98.1238L70.417 97.7965C70.8308 97.2132 71.1645 96.5767 71.4094 95.9042C71.0089 95.5823 70.7137 95.1472 70.5621 94.6551C70.4105 94.1631 70.4093 93.6367 70.5588 93.144C70.9019 92.3541 71.3819 91.6315 71.9765 91.0098C72.2742 90.6541 72.5719 90.3269 72.8271 90.0566L73.4084 89.4163C73.7203 90.2131 74.7268 93.2436 74.3582 94.5668C74.3036 94.8726 74.1775 95.161 73.9902 95.4084C73.8028 95.6557 73.5597 95.8549 73.2808 95.9896C72.9005 96.1503 72.4865 96.2139 72.0758 96.1746C71.9907 96.5018 71.8914 96.9286 71.7922 97.3555L72.4727 97.0567C72.633 96.979 72.8149 96.897 73.0083 96.8098C73.3108 96.6735 73.6413 96.5244 73.9613 96.3595L75.379 95.6054C75.6021 95.503 75.8198 95.3891 76.0311 95.264L77.5339 94.3961C77.8316 93.7366 78.0505 93.0441 78.186 92.333C77.7182 92.1054 77.3314 91.739 77.0778 91.2835C76.8243 90.828 76.7162 90.3054 76.7683 89.7862C76.9506 88.9934 77.2671 88.2379 77.704 87.5524L78.427 86.4C78.6397 86.0585 78.824 85.8024 78.9374 85.6459L78.9425 85.6552C79.3063 86.327 80.8365 89.1526 80.7095 90.5688C80.6892 90.8472 80.612 91.1184 80.4827 91.3655C80.3063 91.687 80.0509 91.9578 79.7406 92.1521C79.4304 92.3463 79.0758 92.4576 78.7106 92.4753C78.6255 92.8168 78.6255 93.2436 78.6255 93.6704L78.9941 93.4286L79.0341 93.4035C79.2553 93.2648 79.5358 93.089 79.8164 92.8879L80.9789 92.0627L81.4325 91.7354L81.8862 91.3798L83.3039 90.2984C83.4952 89.6066 83.6093 88.8956 83.6441 88.1785C83.136 88.0049 82.6954 87.675 82.3849 87.2357C82.0744 86.7963 81.9098 86.2699 81.9146 85.7313C81.9744 84.8784 82.1907 84.0439 82.5525 83.2698C82.9069 82.4162 83.2614 81.6336 83.4315 81.3206C84.5827 82.6524 85.4296 84.221 85.9124 85.9162C85.9435 86.2155 85.9046 86.518 85.7988 86.7996C85.6929 87.0811 85.5231 87.334 85.3028 87.5382C84.9964 87.8148 84.6261 88.0104 84.2254 88.1073C84.231 88.2368 84.2455 88.3842 84.261 88.5414C84.2846 88.7815 84.3105 89.0446 84.3105 89.3025L84.8634 88.8045C85.0967 88.6093 85.3701 88.3472 85.6606 88.0687C85.7937 87.9411 85.9303 87.8101 86.0684 87.6805L86.6922 87.0829L87.2167 86.528L87.7271 85.9874C87.7271 85.9874 88.039 85.6744 88.3367 85.3471L88.9038 84.6926C88.9818 83.9786 88.9818 83.2582 88.9038 82.5442C88.3933 82.4592 87.9205 82.2205 87.5483 81.8597C87.1761 81.4988 86.9221 81.033 86.8198 80.5238C86.7693 80.1557 86.7693 79.7823 86.8198 79.4141C86.8765 79.0015 86.9474 78.6031 87.0466 78.1193C87.1458 77.6356 87.2451 77.1661 87.3727 76.7961C87.3946 76.7327 87.4164 76.6705 87.4377 76.6101C87.5403 76.3186 87.6279 76.0697 87.6279 75.9282C88.2658 76.4831 90.5483 78.7027 90.8177 80.0543C90.8656 80.3321 90.8656 80.616 90.8177 80.8938C90.7813 81.1172 90.7095 81.3334 90.605 81.534C90.5024 81.7012 90.3785 81.8543 90.2364 81.9893C90.012 82.1987 89.7529 82.3672 89.4709 82.4873C89.5417 82.8145 89.641 83.2414 89.7544 83.6682L90.6334 82.5442C91.087 81.9893 91.4982 81.3917 91.4982 81.3917L92.4764 82.1031L92.2212 82.4588H92.93H93.4262C93.4851 82.0311 93.6403 81.6224 93.8799 81.2637C94.0554 81.0017 94.2812 80.7774 94.5441 80.6039C94.807 80.4305 95.1017 80.3114 95.411 80.2535C97.2176 80.2513 99.0094 80.5792 100.699 81.221C100.663 81.2601 100.622 81.3067 100.576 81.3593C100.421 81.536 100.207 81.7798 99.9334 82.032C99.579 82.3592 99.1537 82.7434 98.7001 83.0991C97.9415 83.77 97.0392 84.2569 96.0631 84.5219H95.8221C95.3438 84.5603 94.8659 84.4425 94.4597 84.1861C94.0535 83.9297 93.7407 83.5484 93.568 83.0991C92.8202 83.2504 92.0817 83.4451 91.3564 83.6824L90.9311 84.2089C90.7465 84.4636 90.4773 84.7749 90.1925 85.1045C90.1273 85.1798 90.0614 85.2561 89.9954 85.3329L89.0314 86.4427C88.7478 86.7272 88.5777 86.9264 88.5777 86.9264C88.5777 86.9264 87.9398 87.5667 87.7413 87.7943C87.6043 87.9514 87.4539 88.0949 87.3226 88.2202C87.2635 88.2765 87.2084 88.3291 87.16 88.3777L86.8907 88.6338L88.0957 88.8045C88.2262 88.3843 88.4436 87.9964 88.7337 87.6663C89.1743 87.2127 89.7755 86.9519 90.4065 86.9406C92.174 87.211 93.8759 87.8093 95.4252 88.7049C94.7029 89.2656 93.9452 89.7789 93.1569 90.2415C92.2947 90.7806 91.3282 91.1298 90.3215 91.2659C89.7933 91.2682 89.2812 91.0842 88.8744 90.7461C88.4676 90.4081 88.192 89.9374 88.0957 89.4163C87.3595 89.4189 86.6247 89.4808 85.8983 89.6013L85.4871 89.957L84.5798 90.7395C84.5124 90.7983 84.4456 90.8572 84.3796 90.9152C84.1266 91.1381 83.8862 91.3498 83.6725 91.5078C83.4031 91.707 83.2472 91.8493 83.2472 91.8493L82.4675 92.4468C82.2965 92.5954 82.1166 92.7332 81.9287 92.8595L81.6877 93.0444L81.3191 93.2863L82.0138 93.4997L82.4958 93.6278C82.6912 93.2375 82.961 92.8895 83.2897 92.6034C83.7958 92.2187 84.4326 92.05 85.0618 92.1338C86.7605 92.675 88.3461 93.5237 89.7402 94.6379C88.9352 95.0722 88.1069 95.4617 87.2593 95.8046C86.3276 96.2193 85.315 96.4187 84.2963 96.388C84.2161 96.396 84.1354 96.396 84.0553 96.388C83.5853 96.2644 83.1669 95.9935 82.8609 95.6148C82.555 95.2361 82.3774 94.7693 82.354 94.2822C81.6262 94.1791 80.8916 94.1316 80.1566 94.14L78.3561 95.2924L76.5131 96.3595L76.1871 96.5445L75.4499 96.9286L74.3866 97.4693C74.7694 97.6685 75.1663 97.8535 75.4782 97.9815C75.7361 97.632 76.0646 97.3411 76.4422 97.1278C76.7151 96.9719 77.0169 96.8738 77.329 96.8395C77.6411 96.8053 77.9569 96.8356 78.2569 96.9286C79.8597 97.7408 81.3011 98.8402 82.51 100.173C82.4452 100.194 82.366 100.223 82.2739 100.255C82.0636 100.33 81.7862 100.429 81.4609 100.528C80.9431 100.683 80.4179 100.811 79.8872 100.912C78.8975 101.183 77.8586 101.217 76.8534 101.012C76.3496 100.852 75.9183 100.519 75.6355 100.072C75.3528 99.6238 75.2368 99.0901 75.3081 98.5649C74.5995 98.3554 73.8801 98.1844 73.1532 98.0527L72.657 98.2803C72.5642 98.3202 72.4631 98.3657 72.3555 98.414C72.1179 98.5209 71.8484 98.6421 71.5654 98.7498L69.9492 99.3758L69.6515 99.4897L69.0277 99.7031Z" fill="url(#paint7_linear_759_14938)"/>
<path d="M52.9603 1.72386C53.3175 0.758711 54.6825 0.758712 55.0397 1.72387L56.8173 6.52775C56.9296 6.83119 57.1688 7.07043 57.4723 7.18272L62.2761 8.96031C63.2413 9.31745 63.2413 10.6825 62.2761 11.0397L57.4723 12.8173C57.1688 12.9296 56.9296 13.1688 56.8173 13.4723L55.0397 18.2761C54.6825 19.2413 53.3175 19.2413 52.9603 18.2761L51.1827 13.4723C51.0704 13.1688 50.8312 12.9296 50.5277 12.8173L45.7239 11.0397C44.7587 10.6825 44.7587 9.31745 45.7239 8.96031L50.5277 7.18272C50.8312 7.07043 51.0704 6.83119 51.1827 6.52775L52.9603 1.72386Z" fill="url(#paint8_linear_759_14938)"/>
<path d="M28.146 77V71.22H25.936V69.95H31.916V71.22H29.706V77H28.146ZM39.4567 77H37.7567L36.5367 74.75C36.4367 74.5767 36.3167 74.4533 36.1767 74.38C36.0367 74.3 35.8601 74.26 35.6467 74.26H34.8767V77H33.3367V69.95H36.5767C37.4034 69.95 38.0267 70.1333 38.4467 70.5C38.8734 70.86 39.0867 71.3833 39.0867 72.07C39.0867 72.6033 38.9367 73.05 38.6367 73.41C38.3434 73.77 37.9267 74.0067 37.3867 74.12C37.7534 74.2133 38.0634 74.4767 38.3167 74.91L39.4567 77ZM36.3467 73.08C36.7934 73.08 37.1167 73.0033 37.3167 72.85C37.5167 72.69 37.6167 72.4433 37.6167 72.11C37.6167 71.77 37.5167 71.5233 37.3167 71.37C37.1167 71.2167 36.7934 71.14 36.3467 71.14H34.8567V73.08H36.3467ZM40.9484 77V69.95H45.8084V71.16H42.4684V72.81H45.6084V74.02H42.4684V75.79H45.8084V77H40.9484ZM52.1362 69.95H53.5962V77H52.4362L48.9262 72.51V77H47.4762V69.95H48.6262L52.1362 74.42V69.95ZM55.5957 69.95H58.3357C59.1024 69.95 59.7624 70.09 60.3157 70.37C60.869 70.65 61.2924 71.0533 61.5857 71.58C61.879 72.1067 62.0257 72.7367 62.0257 73.47C62.0257 74.2033 61.879 74.8367 61.5857 75.37C61.299 75.8967 60.879 76.3 60.3257 76.58C59.7724 76.86 59.109 77 58.3357 77H55.5957V69.95ZM58.2257 75.74C59.7257 75.74 60.4757 74.9833 60.4757 73.47C60.4757 71.9633 59.7257 71.21 58.2257 71.21H57.1557V75.74H58.2257ZM63.8227 77V69.95H65.3827V77H63.8227ZM72.0416 69.95H73.5016V77H72.3416L68.8316 72.51V77H67.3816V69.95H68.5316L72.0416 74.42V69.95ZM81.5612 73.11V76.56C81.2212 76.7267 80.8212 76.8567 80.3612 76.95C79.9012 77.0433 79.4278 77.09 78.9412 77.09C78.1945 77.09 77.5478 76.9467 77.0012 76.66C76.4545 76.3667 76.0345 75.95 75.7412 75.41C75.4478 74.8633 75.3012 74.2167 75.3012 73.47C75.3012 72.7367 75.4445 72.1 75.7312 71.56C76.0245 71.0133 76.4412 70.5933 76.9812 70.3C77.5212 70.0067 78.1512 69.86 78.8712 69.86C79.3778 69.86 79.8478 69.93 80.2812 70.07C80.7212 70.21 81.0845 70.4033 81.3712 70.65L80.8812 71.76C80.5545 71.5267 80.2345 71.36 79.9212 71.26C79.6145 71.1533 79.2812 71.1 78.9212 71.1C77.5612 71.1 76.8812 71.89 76.8812 73.47C76.8812 74.2833 77.0578 74.89 77.4112 75.29C77.7645 75.69 78.2978 75.89 79.0112 75.89C79.3978 75.89 79.7812 75.84 80.1612 75.74V74.19H78.7812V73.11H81.5612Z" fill="url(#paint9_linear_759_14938)"/>
<path d="M46.9122 90C46.4084 90 46 90.4084 46 90.9122V105.088C46 105.592 46.4084 106 46.9122 106H61.0877C61.5915 106 61.9999 105.592 61.9999 105.088V99.0947C61.9999 98.8064 61.6484 98.6651 61.4489 98.8733L58.289 102.171C56.9388 103.58 55.5295 104.28 54.061 104.272C52.6041 104.276 51.2205 103.623 49.9102 102.313C48.5188 100.921 47.7857 99.4114 47.711 97.7833C47.6523 96.2799 48.2391 94.8304 49.4715 93.4349C49.6276 93.2582 49.8958 93.2558 50.0624 93.4224L52.8369 96.1969C53.0021 96.3622 53.0038 96.6308 52.8595 96.8152C52.189 97.672 52.1636 98.4103 52.7834 99.0301C53.4096 99.6562 54.1084 99.5668 54.8799 98.7616L61.9109 91.4246C61.968 91.365 61.9999 91.2857 61.9999 91.2032V90.9122C61.9999 90.4084 61.5915 90 61.0877 90H46.9122Z" fill="url(#paint10_linear_759_14938)"/>
<defs>
<linearGradient id="paint0_linear_759_14938" x1="39.5" y1="98" x2="39.5" y2="101" gradientUnits="userSpaceOnUse">
<stop stop-color="#EFBD59"/>
<stop offset="1" stop-color="#D2920F"/>
</linearGradient>
<linearGradient id="paint1_linear_759_14938" x1="68.5" y1="98" x2="68.5" y2="101" gradientUnits="userSpaceOnUse">
<stop stop-color="#EFBD59"/>
<stop offset="1" stop-color="#D2920F"/>
</linearGradient>
<linearGradient id="paint2_linear_759_14938" x1="46" y1="43" x2="46" y2="66" gradientUnits="userSpaceOnUse">
<stop stop-color="#EFBD59"/>
<stop offset="1" stop-color="#D2920F"/>
</linearGradient>
<linearGradient id="paint3_linear_759_14938" x1="64" y1="45.5" x2="64" y2="57.5" gradientUnits="userSpaceOnUse">
<stop stop-color="#EFBD59"/>
<stop offset="1" stop-color="#D2920F"/>
</linearGradient>
<linearGradient id="paint4_linear_759_14938" x1="54" y1="21" x2="54" y2="44" gradientUnits="userSpaceOnUse">
<stop stop-color="#EFBD59"/>
<stop offset="1" stop-color="#D2920F"/>
</linearGradient>
<linearGradient id="paint5_linear_759_14938" x1="21.8963" y1="2" x2="21.8963" y2="82.089" gradientUnits="userSpaceOnUse">
<stop stop-color="#EFBD59"/>
<stop offset="1" stop-color="#D2920F"/>
</linearGradient>
<linearGradient id="paint6_linear_759_14938" x1="86.1391" y1="2.02832" x2="86.1391" y2="82.1885" gradientUnits="userSpaceOnUse">
<stop stop-color="#EFBD59"/>
<stop offset="1" stop-color="#D2920F"/>
</linearGradient>
<linearGradient id="paint7_linear_759_14938" x1="54.0001" y1="75.9282" x2="54.0001" y2="101.144" gradientUnits="userSpaceOnUse">
<stop stop-color="#EFBD59"/>
<stop offset="1" stop-color="#D2920F"/>
</linearGradient>
<linearGradient id="paint8_linear_759_14938" x1="54" y1="1" x2="54" y2="19" gradientUnits="userSpaceOnUse">
<stop stop-color="#EFBD59"/>
<stop offset="1" stop-color="#D2920F"/>
</linearGradient>
<linearGradient id="paint9_linear_759_14938" x1="54" y1="68" x2="54" y2="80" gradientUnits="userSpaceOnUse">
<stop stop-color="#EFBD59"/>
<stop offset="1" stop-color="#D2920F"/>
</linearGradient>
<linearGradient id="paint10_linear_759_14938" x1="53.9999" y1="90" x2="53.9999" y2="106" gradientUnits="userSpaceOnUse">
<stop stop-color="#EFBD59"/>
<stop offset="1" stop-color="#D2920F"/>
</linearGradient>
</defs>
</svg>