<svg viewBox="0 0 112 56" xmlns="http://www.w3.org/2000/svg" data-name="图层 1" id="_图层_1">
  <defs>
    <style>
      .cls-1 {
        fill: #fff;
      }

      .cls-2 {
        fill: #ff6900;
      }
    </style>
  </defs>
  <g>
    <path d="M30.66,14.46c-3.23-3.22-7.87-3.58-13.55-3.58s-10.33,.36-13.56,3.59C.33,17.7,0,22.34,0,28.02s.33,10.32,3.56,13.55c3.23,3.23,7.88,3.55,13.56,3.55s10.33-.33,13.56-3.55c3.23-3.23,3.56-7.87,3.56-13.55s-.33-10.33-3.57-13.56Zm-14.81,19.88c0,.11-.1,.21-.21,.21h-2.92c-.12,0-.22-.1-.22-.21v-7.63c0-.12,.1-.21,.22-.21h2.92c.12,0,.21,.09,.21,.21v7.63Zm5.72,0c0,.11-.1,.21-.22,.21h-2.78c-.12,0-.22-.1-.22-.21v-6.59c0-1.15-.07-2.33-.66-2.93-.51-.51-1.46-.63-2.45-.65h-5.04c-.12,0-.21,.1-.21,.21v9.96c0,.11-.1,.21-.22,.21h-2.78c-.12,0-.21-.1-.21-.21v-12.69c0-.12,.1-.21,.21-.21H15.02c2.1,0,4.29,.1,5.37,1.18,1.09,1.09,1.18,3.28,1.18,5.37v6.34Zm5.72,0c0,.11-.1,.21-.22,.21h-2.78c-.12,0-.22-.1-.22-.21v-12.69c0-.12,.1-.21,.22-.21h2.78c.12,0,.22,.09,.22,.21v12.69Z" class="cls-2"></path>
    <g>
      <path d="M15.64,26.5h-2.92c-.12,0-.22,.09-.22,.21v7.63c0,.11,.1,.21,.22,.21h2.92c.12,0,.21-.1,.21-.21v-7.63c0-.12-.1-.21-.21-.21Z" class="cls-1"></path>
      <path d="M24.3,34.55h2.78c.12,0,.22-.1,.22-.21v-12.69c0-.12-.1-.21-.22-.21h-2.78c-.12,0-.22,.09-.22,.21v12.69c0,.11,.1,.21,.22,.21Z" class="cls-1"></path>
      <path d="M7,34.55h2.78c.12,0,.22-.1,.22-.21v-9.96c0-.11,.1-.21,.21-.21h5.04c.99,.02,1.94,.14,2.45,.65,.59,.59,.66,1.78,.66,2.93v6.59c0,.11,.1,.21,.22,.21h2.78c.12,0,.22-.1,.22-.21v-6.34c0-2.1-.1-4.29-1.18-5.37-1.08-1.08-3.27-1.18-5.37-1.18H7c-.12,0-.21,.09-.21,.21v12.69c0,.11,.1,.21,.21,.21Z" class="cls-1"></path>
    </g>
  </g>
  <g>
    <path d="M44.78,32.46l1.6,4.03h-.48l-.45-1.15h-1.73l-.46,1.15h-.47l1.6-4.03h.39Zm.53,2.51l-.73-1.86-.73,1.86h1.45Z"></path>
    <path d="M48.81,36.49v-.33c-.28,.26-.6,.4-.92,.4-.6,0-1.02-.43-1.02-1.02v-1.97h.46v1.91c0,.4,.28,.69,.67,.69,.28,0,.56-.15,.81-.42v-2.18h.47v2.93h-.47Z"></path>
    <path d="M51.88,33.56v.37h-.99v1.73c0,.3,.2,.52,.51,.52,.15,0,.31-.06,.49-.15v.4c-.2,.09-.39,.13-.57,.13-.52,0-.88-.36-.88-.85v-1.77h-.56v-.37h.56v-.83h.46v.83h.99Z"></path>
    <path d="M53.04,32.28v1.6c.28-.26,.6-.39,.93-.39,.6,0,1.02,.42,1.02,1.02v1.97h-.47v-1.91c0-.4-.28-.69-.67-.69-.28,0-.57,.14-.81,.42v2.18h-.46v-4.21h.46Z"></path>
    <path d="M57.1,33.49c.83,0,1.41,.63,1.41,1.53s-.59,1.53-1.41,1.53-1.41-.63-1.41-1.53,.58-1.53,1.41-1.53Zm0,2.68c.54,0,.93-.47,.93-1.15s-.39-1.15-.93-1.15-.94,.47-.94,1.15,.39,1.15,.94,1.15Z"></path>
    <path d="M59.68,33.56v.35c.23-.27,.52-.42,.81-.42,.09,0,.19,.01,.29,.04v.42c-.1-.03-.2-.05-.31-.05-.28,0-.56,.16-.78,.46v2.12h-.46v-2.93h.46Z"></path>
    <path d="M61.65,32.42c.17,0,.29,.12,.29,.29s-.12,.29-.29,.29-.29-.12-.29-.29,.12-.29,.29-.29Zm.23,1.14v2.93h-.46v-2.93h.46Z"></path>
    <path d="M64.25,33.93h-1.57v-.37h2.15v.28l-1.65,2.28h1.68v.37h-2.27v-.28l1.66-2.28Z"></path>
    <path d="M66.64,33.49c.72,0,1.19,.59,1.19,1.43,0,.07,0,.13,0,.2h-2.08c.02,.63,.44,1.06,1.02,1.06,.28,0,.57-.1,.86-.28v.42c-.3,.15-.61,.23-.92,.23-.84,0-1.43-.64-1.43-1.56s.57-1.51,1.36-1.51Zm-.02,.37c-.49,0-.84,.38-.87,.94h1.63c0-.56-.32-.94-.76-.94Z"></path>
    <path d="M70.45,36.49v-.26c-.24,.22-.53,.33-.83,.33-.77,0-1.31-.63-1.31-1.53s.54-1.53,1.31-1.53c.3,0,.59,.12,.83,.33v-1.54h.47v4.21h-.47Zm-.75-.32c.26,0,.53-.12,.75-.35v-1.58c-.22-.23-.49-.35-.75-.35-.54,0-.91,.47-.91,1.14s.37,1.14,.91,1.14Z"></path>
    <path d="M74.65,32.46c.78,0,1.34,.5,1.34,1.22,0,.58-.35,1.01-.92,1.16l1.02,1.64h-.53l-.98-1.59h-.69v1.59h-.47v-4.03h1.22Zm-.07,2.05c.54,0,.92-.35,.92-.84s-.37-.84-.92-.84h-.68v1.67h.68Z"></path>
    <path d="M77.91,33.49c.72,0,1.19,.59,1.19,1.43,0,.07,0,.13,0,.2h-2.08c.02,.63,.44,1.06,1.02,1.06,.28,0,.57-.1,.86-.28v.42c-.3,.15-.61,.23-.92,.23-.84,0-1.43-.64-1.43-1.56s.57-1.51,1.36-1.51Zm-.02,.37c-.49,0-.84,.38-.87,.94h1.63c0-.56-.32-.94-.76-.94Z"></path>
    <path d="M80.53,36.18c.35,0,.61-.19,.61-.48,0-.68-1.49-.36-1.49-1.37,0-.5,.42-.84,1.02-.84,.26,0,.53,.06,.78,.17v.43c-.25-.15-.5-.23-.75-.23-.35,0-.59,.19-.59,.46,0,.66,1.49,.33,1.49,1.37,0,.51-.43,.87-1.05,.87-.28,0-.57-.07-.85-.2v-.44c.27,.18,.55,.28,.82,.28Z"></path>
    <path d="M83.46,33.49c.72,0,1.19,.59,1.19,1.43,0,.07,0,.13,0,.2h-2.08c.02,.63,.44,1.06,1.02,1.06,.28,0,.57-.1,.86-.28v.42c-.3,.15-.61,.23-.92,.23-.84,0-1.43-.64-1.43-1.56s.57-1.51,1.36-1.51Zm-.02,.37c-.49,0-.84,.38-.87,.94h1.63c0-.56-.32-.94-.76-.94Z"></path>
    <path d="M85.81,32.28v4.21h-.46v-4.21h.46Z"></path>
    <path d="M87.21,32.28v4.21h-.46v-4.21h.46Z"></path>
    <path d="M89.29,33.49c.72,0,1.19,.59,1.19,1.43,0,.07,0,.13,0,.2h-2.08c.02,.63,.44,1.06,1.02,1.06,.28,0,.57-.1,.86-.28v.42c-.3,.15-.61,.23-.92,.23-.84,0-1.43-.64-1.43-1.56s.57-1.51,1.36-1.51Zm-.02,.37c-.49,0-.84,.38-.87,.94h1.63c0-.56-.32-.94-.76-.94Z"></path>
    <path d="M91.65,33.56v.35c.23-.27,.52-.42,.81-.42,.09,0,.19,.01,.29,.04v.42c-.1-.03-.2-.05-.31-.05-.28,0-.56,.16-.78,.46v2.12h-.46v-2.93h.46Z"></path>
  </g>
  <g>
    <path d="M42.91,19.71h1.78l1.92,2.9,1.93-2.9h1.78l-2.77,4,2.88,4.14h-1.81l-2-3.04-1.99,3.04h-1.82l2.89-4.14-2.77-4Z"></path>
    <path d="M52.15,19.44c.5,0,.86,.36,.86,.86s-.37,.85-.86,.85-.86-.36-.86-.85,.35-.86,.86-.86Zm.76,2.5v5.92h-1.51v-5.92h1.51Z"></path>
    <path d="M56.05,28c-1.1,0-1.88-.72-1.88-1.76,0-1.23,1.16-2.08,2.85-2.08,.24,0,.47,.01,.73,.02v-.27c0-.56-.45-.94-1.11-.94-.62,0-1.29,.19-1.96,.57v-1.25c.72-.33,1.44-.49,2.14-.49,1.44,0,2.38,.9,2.38,2.18v3.88h-1.44v-.47c-.52,.4-1.1,.62-1.7,.62Zm.5-1.17c.41,0,.84-.21,1.21-.58v-1.16c-.21-.02-.43-.04-.66-.04-.85,0-1.43,.4-1.43,.97,0,.47,.37,.8,.89,.8Z"></path>
    <path d="M63.46,21.8c1.79,0,3.04,1.28,3.04,3.1s-1.25,3.1-3.04,3.1-3.05-1.29-3.05-3.1,1.27-3.1,3.05-3.1Zm0,4.93c.88,0,1.49-.75,1.49-1.83s-.62-1.83-1.49-1.83-1.5,.75-1.5,1.83,.62,1.83,1.5,1.83Z"></path>
    <path d="M69.27,21.94v.47c.52-.43,1.09-.62,1.68-.62,.71,0,1.3,.31,1.67,.89,.59-.59,1.27-.89,1.96-.89,1.17,0,1.96,.85,1.96,2.07v3.99h-1.51v-3.75c0-.57-.38-.98-.92-.98-.39,0-.82,.2-1.2,.6v4.13h-1.51v-3.75c0-.57-.39-.98-.93-.98-.39,0-.82,.2-1.2,.6v4.13h-1.51v-5.92h1.51Z"></path>
    <path d="M78.91,19.44c.5,0,.86,.36,.86,.86s-.37,.85-.86,.85-.86-.36-.86-.85,.35-.86,.86-.86Zm.76,2.5v5.92h-1.51v-5.92h1.51Z"></path>
    <path d="M86.46,26.76c.9,0,1.51-.47,1.51-1.16,0-1.67-3.95-.85-3.95-3.67,0-1.4,1.2-2.36,2.91-2.36,.72,0,1.47,.15,2.19,.45v1.41c-.69-.41-1.41-.62-2.08-.62-.86,0-1.47,.44-1.47,1.09,0,1.62,3.95,.81,3.95,3.67,0,1.43-1.23,2.43-2.96,2.43-.78,0-1.6-.18-2.38-.54v-1.43c.76,.49,1.53,.73,2.27,.73Z"></path>
    <path d="M94.31,21.94v1.22h-1.7v2.73c0,.49,.34,.84,.86,.84,.25,0,.53-.08,.84-.24v1.25c-.43,.17-.84,.25-1.24,.25-1.16,0-1.98-.79-1.98-1.91v-2.93h-1.02v-1.22h1.02v-1.67h1.51v1.67h1.7Z"></path>
    <path d="M98.16,21.8c1.79,0,3.04,1.28,3.04,3.1s-1.25,3.1-3.04,3.1-3.05-1.29-3.05-3.1,1.27-3.1,3.05-3.1Zm0,4.93c.88,0,1.49-.75,1.49-1.83s-.62-1.83-1.49-1.83-1.5,.75-1.5,1.83,.62,1.83,1.5,1.83Z"></path>
    <path d="M103.97,21.94v.59c.43-.47,.95-.73,1.46-.73,.17,0,.33,.01,.5,.06v1.35c-.17-.05-.35-.07-.53-.07-.5,0-1.03,.27-1.42,.77v3.95h-1.51v-5.92h1.51Z"></path>
    <path d="M109.39,21.8c1.55,0,2.6,1.22,2.6,2.96,0,.17,0,.36-.02,.56h-4.01c.09,.9,.8,1.51,1.8,1.51,.54,0,1.15-.2,1.76-.56v1.27c-.67,.31-1.35,.46-2.01,.46-1.79,0-3.04-1.3-3.04-3.15s1.23-3.05,2.92-3.05Zm-.06,1.17c-.73,0-1.3,.54-1.37,1.36h2.58c-.05-.8-.53-1.36-1.21-1.36Z"></path>
  </g>
</svg>